<svg width="806" height="162" viewBox="0 0 806 162" fill="none" xmlns="http://www.w3.org/2000/svg">
<path d="M234.924 85.6005C234.234 84.3778 233.313 83.4885 232.277 82.9327C231.242 82.4881 230.091 82.377 229.285 82.377C225.717 82.377 221.919 83.822 218.007 86.6009C213.978 89.4909 210.411 93.159 207.879 97.2718C208.684 90.6024 208.8 83.9331 208.339 77.1527C211.447 74.8184 213.518 70.928 213.978 66.8152C214.439 62.9248 213.518 58.5897 211.447 54.3658C210.641 52.6985 209.375 50.4754 207.303 49.1416C205.347 47.8077 202.355 47.2519 200.053 48.6969C197.981 50.0308 196.945 52.4762 196.945 56.0332C197.061 63.814 200.283 71.3726 205.922 76.9304C206.843 89.602 205.462 102.385 202.009 114.501L199.938 101.496C199.247 97.4941 198.672 93.3813 197.061 89.3797C196.255 87.3789 194.068 82.8216 189.58 82.5993C187.854 82.4881 186.242 83.155 184.861 84.3778C183.135 86.0451 181.984 88.7128 182.099 91.1582C182.214 93.9371 183.135 96.3825 184.171 98.9391C184.516 99.8283 184.976 100.829 185.207 101.718C185.437 102.496 185.667 103.274 185.897 104.052C186.588 106.386 187.278 108.721 188.774 110.722C190.27 112.722 192.457 114.056 194.529 115.39C196.715 116.724 198.672 118.058 199.823 119.947C199.823 120.059 199.823 120.059 199.823 120.17C199.823 120.281 199.823 120.503 199.938 120.614C194.759 135.509 186.242 149.292 175.079 160.853C174.849 161.075 174.734 161.297 174.503 161.519H177.726C177.956 161.297 178.071 161.075 178.301 160.853C189.12 149.292 197.291 135.62 202.355 120.948C202.585 120.837 202.815 120.503 202.7 120.17C202.7 120.17 202.7 120.17 202.7 120.059C204.426 115.057 205.807 109.943 206.728 104.719L213.173 104.386C218.467 104.052 224.451 103.719 229.515 100.718C234.349 97.6052 237.802 90.8248 234.924 85.6005ZM195.91 113.5C193.953 112.278 191.997 111.055 190.731 109.388C189.465 107.72 188.889 105.608 188.199 103.496C187.969 102.718 187.738 101.94 187.508 101.162C187.163 100.162 186.818 99.1614 186.357 98.161C185.437 95.8267 184.516 93.6036 184.516 91.2694C184.401 89.3797 185.207 87.3789 186.588 86.1562C187.163 85.6005 188.084 85.0447 189.235 85.0447H189.35C192.342 85.1558 194.068 88.824 194.644 90.3801C196.14 94.1594 196.715 98.161 197.406 102.051L199.708 116.39C198.557 115.168 197.176 114.39 195.91 113.5ZM199.247 56.0332C199.247 53.2543 199.938 51.4758 201.204 50.5866C201.664 50.2531 202.355 50.1419 203.045 50.1419C203.966 50.1419 205.002 50.4754 205.807 51.0312C207.418 52.1427 208.454 53.9212 209.145 55.3662C210.986 59.2567 211.792 63.1471 211.447 66.5929C211.101 69.9276 209.49 73.0399 207.188 75.0407C202.24 69.9276 199.362 63.036 199.247 56.0332ZM228.134 98.6056C223.646 101.273 218.007 101.718 212.943 101.94L207.764 102.274C210.296 96.8271 214.439 91.9363 219.388 88.3793C222.84 85.9339 226.293 84.7112 229.285 84.6001H229.515C230.206 84.6001 230.781 84.7112 231.242 84.9335C232.047 85.267 232.508 86.0451 232.853 86.6009C235.039 90.8248 232.277 96.1602 228.134 98.6056Z" fill="#A1C5CB"/>
<path d="M612.641 100.05C612.066 98.3826 610.8 96.9376 609.304 96.3818C608.153 95.9372 606.887 95.9372 605.736 95.9372H601.708C601.132 95.9372 600.442 95.9372 599.751 96.0483C599.866 95.9372 599.981 95.826 600.097 95.6037C600.212 95.4926 600.327 95.2702 600.442 95.1591C600.672 94.9368 601.017 94.6033 601.363 94.381C601.593 94.2698 601.708 94.0475 601.938 93.9364C603.204 92.8248 604.125 91.3798 604.47 90.046C604.93 88.2675 604.585 86.489 603.549 85.2663C603.434 85.044 603.204 84.9328 603.089 84.8217C602.859 84.5993 602.744 84.4882 602.628 84.2659C602.398 83.9324 602.283 83.3766 602.168 82.8209C602.053 82.4874 602.053 82.0428 601.938 81.7093C601.823 81.3759 601.708 81.0424 601.247 80.7089C600.902 80.4866 600.557 80.4866 600.212 80.4866C599.061 80.4866 597.795 80.9312 596.644 81.8205C595.723 82.4874 594.918 83.3766 594.112 84.1547L589.163 89.4902C588.933 89.7125 588.588 89.9348 588.127 90.2683C587.897 90.4906 587.552 90.6017 587.322 90.824C586.056 91.8244 585.135 93.0471 584.445 94.381V94.2698C584.33 94.0475 584.33 93.6029 584.33 93.2694C584.33 93.0471 584.33 92.7137 584.33 92.4914C584.214 91.6021 583.869 90.6017 583.294 89.9348C581.452 87.6005 579.266 84.9328 577.654 81.8205L577.309 81.1535C576.273 79.2639 575.238 77.2631 573.281 76.0404C573.166 75.9292 572.591 75.5958 572.015 75.7069C571.325 75.9293 571.094 76.485 570.979 76.7073C569.368 80.8201 568.908 85.4886 569.829 89.8236C570.174 91.491 570.634 92.8248 571.325 93.8252C572.015 94.9368 573.051 95.9372 573.972 96.8264C574.547 97.3822 575.123 97.938 575.698 98.4937C575.123 98.1603 574.432 97.8268 573.857 97.3822C570.519 95.2702 567.412 92.6025 564.419 90.046C563.729 89.4902 563.153 88.7121 562.463 88.0452C561.772 87.2671 561.082 86.6001 560.391 85.9332C559.01 84.7105 556.824 83.1543 554.177 83.2655C553.486 83.2655 553.026 83.4878 552.68 83.9324C552.45 84.2659 552.335 84.7105 552.335 85.044C552.335 86.7113 553.026 88.3786 554.062 89.6013C554.292 89.8236 554.522 90.046 554.637 90.2683C554.982 90.6017 555.443 91.0463 555.558 91.3798C555.788 91.9356 555.788 92.6025 555.788 93.3806C555.788 94.381 555.788 95.4926 556.478 96.493C557.054 97.271 557.859 97.8268 558.55 98.2714C559.01 98.4937 559.356 98.7161 559.701 99.0495C560.161 99.4941 560.506 100.161 560.852 100.828C561.082 101.384 561.427 101.94 561.772 102.495C563.614 105.052 567.066 105.608 569.483 105.83C570.404 105.941 571.325 105.941 572.245 106.052C570.979 106.719 569.713 107.497 568.678 108.498C566.146 110.721 564.304 113.5 562.463 116.167C562.003 116.945 561.312 117.835 561.197 118.946C560.967 120.502 561.657 121.725 562.348 122.614C562.923 123.504 564.074 124.615 565.685 125.06C566.031 125.171 566.491 125.282 566.836 125.282C567.297 125.282 567.642 125.171 567.987 125.06C568.563 124.838 568.908 124.393 569.253 124.059C569.944 123.17 570.289 122.281 570.749 121.392C571.21 120.391 571.555 119.502 572.245 118.835C572.821 118.279 573.511 117.835 574.317 117.39C568.332 127.505 565.11 139.177 562.348 149.736L559.24 161.185L559.125 161.852H561.542L561.657 161.185L564.65 150.292C568.102 137.62 571.9 123.392 580.532 112.388C580.532 112.944 580.647 113.5 580.877 114.055C581.107 114.945 581.452 115.834 582.028 116.612C582.258 117.057 582.603 117.39 582.833 117.724C583.064 118.057 583.294 118.391 583.524 118.724C583.984 119.502 584.33 120.28 584.445 121.058C584.445 121.281 584.56 121.503 584.56 121.725C584.675 122.614 584.905 123.615 585.48 124.393C586.056 125.282 586.977 125.727 587.782 125.949C588.703 126.171 589.624 126.283 590.314 126.283C590.774 126.283 591.12 126.283 591.58 126.283H591.81C592.04 126.283 592.271 126.171 592.386 125.838L592.501 125.616C593.421 122.837 592.846 120.169 592.271 117.501C591.925 115.945 591.58 114.278 591.58 112.833V112.277C591.58 111.61 591.58 110.832 591.35 110.165C591.12 109.053 590.429 108.275 589.854 107.497L589.624 107.275C589.393 106.942 589.048 106.497 588.703 106.163C589.163 106.275 589.508 106.497 589.969 106.608C592.271 107.386 594.572 107.72 597.449 107.942C598.946 108.053 600.212 108.164 601.247 108.164H601.363C604.24 108.164 606.541 107.831 608.613 107.053C611.26 106.052 612.986 104.274 613.101 102.384C612.986 101.273 612.871 100.717 612.641 100.05ZM599.981 81.9316V82.1539V81.9316ZM599.981 82.3763V82.5986V82.3763ZM585.02 100.939L585.25 98.1603C585.25 97.8268 585.365 97.4933 585.25 97.0487C585.711 95.1591 586.746 93.4918 588.358 92.3802C588.588 92.1579 588.818 92.0467 589.048 91.9356C589.508 91.7133 589.969 91.2687 590.429 90.824L595.378 85.4886C596.068 84.7105 596.759 83.9324 597.565 83.3766C598.14 83.0432 598.946 82.4874 599.751 82.4874C599.866 82.7097 599.866 82.932 599.981 83.2655C600.097 83.9324 600.327 84.7105 600.787 85.3774C601.017 85.7109 601.247 85.9332 601.478 86.1555C601.593 86.2667 601.708 86.3778 601.823 86.489C602.513 87.2671 602.744 88.3786 602.398 89.6013C602.168 90.6017 601.478 91.6021 600.442 92.6025C600.327 92.7137 600.097 92.8248 599.981 93.0471C599.636 93.3806 599.291 93.6029 598.946 93.9364C598.831 94.0475 598.6 94.2698 598.485 94.381C598.255 94.6033 598.025 94.9368 597.795 95.0479C597.334 95.3814 596.759 95.4926 596.184 95.7149H596.069C592.616 96.8264 589.278 98.2714 586.171 100.161L586.056 100.272C585.711 100.606 585.365 100.828 585.02 100.939ZM569.713 103.607C567.642 103.385 564.88 102.94 563.499 101.05C563.269 100.606 563.038 100.161 562.693 99.7164C562.348 98.9384 561.887 98.0491 561.197 97.3822C560.737 96.9376 560.161 96.6041 559.701 96.2706C559.125 95.9372 558.55 95.6037 558.32 95.1591C557.975 94.6033 557.974 93.9364 557.974 93.0471C557.974 92.1579 557.974 91.1575 557.514 90.2683C557.169 89.6013 556.593 89.0456 556.133 88.6009C555.903 88.3786 555.788 88.2675 555.673 88.0452C554.982 87.2671 554.522 86.1555 554.407 84.9328C555.788 84.9328 557.169 85.7109 559.01 87.1559C559.701 87.7117 560.276 88.4898 560.967 89.1567C561.657 89.9348 562.348 90.7129 563.038 91.3798C566.031 93.9364 569.253 96.6041 572.706 98.8272C575.353 100.495 578.23 101.94 581.222 103.162C577.309 103.94 573.511 104.052 569.713 103.607ZM580.877 107.164C580.532 107.608 580.071 108.053 579.726 108.498C579.266 108.942 578.805 109.387 578.46 109.832C578 110.387 577.654 110.943 577.194 111.61C576.619 112.499 576.043 113.277 575.353 113.944C574.777 114.389 574.087 114.834 573.396 115.278C572.476 115.834 571.44 116.39 570.634 117.279C569.829 118.168 569.253 119.28 568.793 120.391C568.447 121.281 568.102 122.059 567.527 122.726C567.297 122.948 567.182 123.059 567.066 123.17C566.836 123.281 566.606 123.281 566.261 123.17C565.455 122.948 564.65 122.281 563.959 121.392C563.499 120.836 563.038 119.947 563.153 119.057C563.269 118.391 563.729 117.724 564.074 117.057C565.8 114.5 567.527 111.832 569.944 109.832C573.051 107.164 577.194 105.719 581.337 105.719H581.452C581.567 105.719 581.798 105.719 581.913 105.719C581.683 106.052 581.337 106.608 580.877 107.164ZM575.123 95.4926C574.317 94.7145 573.396 93.8252 572.821 92.8248C572.245 91.9356 571.9 90.824 571.555 89.379C570.749 85.5997 570.979 81.487 572.36 77.8189C573.626 78.8193 574.432 80.3755 575.238 81.9316L575.583 82.7097C577.309 85.9332 579.496 88.7121 581.452 91.1575C581.798 91.6021 582.028 92.1579 582.028 92.6025C582.028 92.8248 582.028 93.0471 582.028 93.2694C582.028 93.8252 582.028 94.381 582.258 94.9368C582.373 95.3814 582.603 95.7149 582.833 96.0483C582.948 96.2706 583.064 96.493 583.179 96.7153C583.179 96.8264 583.294 96.9376 583.294 97.0487C583.064 98.2714 582.949 99.6053 583.064 100.828C582.718 100.939 582.373 101.05 582.143 101.161C579.496 99.7165 577.194 97.4933 575.123 95.4926ZM589.278 110.276C589.393 110.721 589.393 111.277 589.393 111.944C589.393 112.166 589.393 112.388 589.393 112.499C589.393 114.278 589.854 115.945 590.199 117.612C590.659 119.947 591.235 122.059 590.659 124.171C589.278 124.171 587.667 124.059 586.977 123.059C586.631 122.614 586.516 121.836 586.401 121.169C586.401 120.947 586.286 120.614 586.286 120.391C586.056 119.391 585.596 118.391 585.135 117.39C584.905 116.945 584.56 116.612 584.33 116.167C584.099 115.834 583.869 115.5 583.639 115.167C583.294 114.5 582.948 113.833 582.718 113.166C582.373 111.944 582.373 110.61 582.603 109.387C582.718 109.276 582.718 109.165 582.718 109.053C582.833 108.498 583.064 108.053 583.294 107.608C583.524 107.164 583.754 106.83 583.984 106.497C584.099 106.275 584.214 106.163 584.33 105.941C584.56 105.608 584.675 105.274 584.79 105.052C585.941 105.497 587.092 107.053 587.897 108.164L588.127 108.387C588.588 108.942 589.048 109.609 589.278 110.276ZM607.807 104.718C604.585 105.83 600.902 105.719 597.449 105.497C594.802 105.274 592.501 105.052 590.429 104.274C589.969 104.051 589.393 103.94 588.933 103.718C588.012 103.385 587.092 103.051 586.056 102.718C588.012 101.495 590.199 100.717 592.501 100.272C592.846 100.161 593.191 100.161 593.537 100.05C594.687 99.8276 595.953 99.7164 597.104 99.1607C597.45 98.9384 597.795 98.8272 598.14 98.6049C598.6 98.3826 599.061 98.0491 599.521 97.938C600.097 97.7157 600.902 97.7157 601.478 97.7157H605.621C606.541 97.7157 607.577 97.7157 608.383 98.0491C609.419 98.4937 610.224 99.383 610.57 100.495C610.685 100.939 610.8 101.273 610.8 101.606C610.915 102.273 610.685 103.718 607.807 104.718Z" fill="#A1C5CB"/>
<path d="M186.127 107.609C185.551 105.941 184.285 104.496 182.789 103.94C181.638 103.496 180.372 103.496 179.222 103.496H175.194C174.618 103.496 173.928 103.496 173.237 103.607C173.352 103.496 173.467 103.385 173.582 103.162C173.697 103.051 173.812 102.94 173.928 102.829C174.158 102.607 174.503 102.273 174.848 102.051C175.078 101.94 175.193 101.717 175.424 101.606C176.69 100.495 177.61 99.0496 177.956 97.7157C178.416 96.0483 178.071 94.1587 177.035 92.936C176.92 92.7136 176.69 92.6025 176.575 92.4913C176.344 92.269 176.229 92.1579 176.114 91.9355C175.884 91.6021 175.769 91.0463 175.654 90.4905C175.539 90.157 175.539 89.7124 175.424 89.3789C175.309 89.0455 175.194 88.712 174.733 88.3785C174.388 88.1562 174.043 88.1562 173.697 88.1562C172.546 88.1562 171.281 88.6008 170.13 89.4901C169.209 90.157 168.403 91.0463 167.598 91.8244L162.649 97.1599C162.419 97.3822 162.073 97.6045 161.613 97.938C161.383 98.1603 161.038 98.2715 160.808 98.4938C159.542 99.4942 158.621 100.717 157.93 102.051V101.94C157.815 101.717 157.815 101.273 157.815 100.939C157.815 100.717 157.815 100.383 157.815 100.161C157.7 99.2719 157.355 98.2715 156.779 97.6045C154.938 95.2702 152.751 92.6025 151.14 89.4901L150.795 88.8231C149.759 86.9335 148.723 84.9327 146.767 83.7099C146.652 83.5988 146.076 83.2653 145.501 83.4876C144.81 83.7099 144.58 84.2657 144.465 84.488C142.854 88.6008 142.393 93.2694 143.314 97.7157C143.659 99.383 144.12 100.606 144.81 101.717C145.501 102.829 146.537 103.829 147.457 104.719C148.033 105.274 148.608 105.83 149.184 106.386C148.608 106.052 147.918 105.719 147.342 105.274C144.005 103.162 140.897 100.495 137.905 97.938C137.215 97.3822 136.639 96.6041 135.949 95.9372C135.258 95.1591 134.567 94.4921 133.877 93.8252C132.496 92.6025 130.309 91.0463 127.662 91.1574C126.972 91.1574 126.511 91.3798 126.166 91.8244C125.936 92.1579 125.821 92.6025 125.821 92.8248C125.821 94.4921 126.511 96.1595 127.547 97.3822C127.777 97.6045 128.007 97.8268 128.123 98.0492C128.468 98.4938 128.928 98.8273 129.043 99.1607C129.273 99.7165 129.273 100.383 129.273 101.162C129.273 102.162 129.273 103.274 129.964 104.274C130.539 105.052 131.345 105.608 132.036 105.941C132.496 106.164 132.841 106.497 133.186 106.719C133.647 107.164 133.992 107.831 134.337 108.498C134.567 109.054 134.913 109.609 135.258 110.165C137.099 112.722 140.552 113.278 142.969 113.5C143.89 113.611 144.81 113.611 145.731 113.722C144.465 114.389 143.199 115.167 142.163 116.168C139.631 118.391 137.79 121.17 135.949 123.838C135.488 124.616 134.798 125.505 134.683 126.616C134.452 128.173 135.143 129.395 135.833 130.285C136.409 131.174 137.56 132.285 139.171 132.73C139.516 132.841 139.977 132.952 140.322 132.952C140.667 132.952 141.127 132.841 141.473 132.73C142.048 132.508 142.393 132.063 142.739 131.73C143.429 130.84 143.775 129.951 144.235 129.062C144.695 128.061 145.04 127.172 145.731 126.505C146.306 125.838 147.112 125.394 148.033 124.949C148.838 124.504 149.644 124.06 150.335 123.393C151.255 122.615 151.946 121.614 152.521 120.614C152.866 120.058 153.212 119.502 153.672 119.058C153.787 118.947 153.902 118.835 154.017 118.613C154.017 119.614 154.132 120.725 154.363 121.726C154.593 122.615 154.938 123.504 155.513 124.282C155.744 124.616 156.089 125.06 156.319 125.394C156.549 125.727 156.779 126.061 157.01 126.394C157.47 127.172 157.815 127.95 157.93 128.728C157.93 128.951 158.045 129.173 158.045 129.395C158.16 130.285 158.391 131.285 158.966 132.063C160.117 133.73 162.189 133.953 163.685 133.953C165.986 142.956 166.217 152.294 164.605 161.075C164.605 161.297 164.49 161.52 164.49 161.742H166.907C166.907 161.52 167.022 161.297 167.022 161.075C168.633 152.071 168.288 142.512 165.986 133.286V133.175C166.907 130.396 166.332 127.728 165.756 125.06C165.411 123.504 165.066 121.837 165.066 120.281V119.725C165.066 119.058 165.066 118.28 164.836 117.502C164.605 116.39 163.915 115.612 163.339 114.834L163.109 114.612C162.879 114.278 162.534 113.833 162.189 113.5C162.649 113.611 162.994 113.833 163.455 113.945C165.756 114.723 168.058 115.056 170.935 115.278C172.431 115.39 173.697 115.39 174.733 115.501C177.61 115.501 180.027 115.167 182.099 114.389C184.746 113.389 186.472 111.61 186.587 109.721C186.472 108.831 186.357 108.276 186.127 107.609ZM158.736 105.719C158.736 105.386 158.736 105.052 158.736 104.607C159.196 102.718 160.232 101.05 161.843 99.9388C162.073 99.8277 162.304 99.6054 162.534 99.4942C162.994 99.1607 163.455 98.8273 163.915 98.3826L168.864 93.0471C169.554 92.269 170.245 91.4909 171.05 90.9351C171.511 90.6017 172.316 90.157 173.237 90.0459C173.352 90.2682 173.352 90.4905 173.467 90.824C173.582 91.4909 173.812 92.269 174.273 92.936C174.503 93.2694 174.733 93.4917 174.963 93.714C175.078 93.8252 175.194 93.9364 175.309 94.0475C175.999 94.8256 176.229 95.9372 175.884 97.0487C175.654 98.0492 174.963 99.0496 173.928 100.05C173.812 100.161 173.582 100.272 173.467 100.495C173.122 100.828 172.777 101.05 172.431 101.384C172.316 101.495 172.086 101.717 171.971 101.828C171.741 102.051 171.511 102.384 171.281 102.495C170.82 102.829 170.36 102.94 169.669 103.162H169.554C166.102 104.274 162.764 105.719 159.657 107.609L159.542 107.72C159.196 107.942 158.851 108.164 158.506 108.276L158.736 105.719ZM143.199 111.166C141.127 110.943 138.365 110.499 136.984 108.609C136.754 108.164 136.524 107.72 136.179 107.275C135.833 106.497 135.373 105.719 134.683 104.941C134.222 104.496 133.647 104.163 133.186 103.829C132.611 103.496 132.036 103.162 131.805 102.718C131.46 102.162 131.46 101.495 131.46 100.606C131.46 99.7165 131.46 98.7161 131 97.8268C130.654 97.1599 130.079 96.6041 129.619 96.1595C129.389 95.9372 129.273 95.826 129.043 95.6037C128.353 94.8256 127.892 93.714 127.777 92.4913C129.158 92.4913 130.539 93.2694 132.381 94.7145C133.071 95.2702 133.647 96.0483 134.337 96.7153C135.028 97.4934 135.718 98.2715 136.409 98.9384C139.401 101.495 142.624 104.163 146.076 106.386C148.723 108.053 151.6 109.498 154.708 110.721C150.795 111.388 146.997 111.61 143.199 111.166ZM154.248 114.723C153.902 115.167 153.442 115.612 153.097 116.057C152.636 116.501 152.291 116.946 151.831 117.39C151.37 117.946 151.025 118.502 150.565 119.169C149.989 120.058 149.414 120.836 148.723 121.503C148.148 121.948 147.457 122.392 146.767 122.837C145.846 123.393 144.81 123.949 144.005 124.838C143.199 125.727 142.624 126.839 142.163 127.95C141.818 128.728 141.473 129.618 140.897 130.173C140.667 130.396 140.552 130.507 140.437 130.618C140.207 130.729 139.977 130.729 139.631 130.618C138.826 130.396 138.02 129.729 137.33 128.84C136.869 128.284 136.409 127.395 136.524 126.505C136.639 125.838 137.099 125.171 137.445 124.504C139.171 121.948 140.897 119.28 143.314 117.279C146.422 114.612 150.565 113.166 154.708 113.166H155.168C155.168 113.611 154.708 114.167 154.248 114.723ZM148.608 103.051C147.803 102.273 146.882 101.384 146.306 100.383C145.731 99.4942 145.386 98.3826 145.04 96.9376C144.235 93.1583 144.465 89.0455 145.846 85.3773C147.112 86.3777 147.918 87.9339 148.723 89.4901L149.069 90.2682C150.795 93.4917 152.982 96.2706 154.938 98.7161C155.283 99.1607 155.513 99.7165 155.513 100.161C155.513 100.383 155.513 100.606 155.513 100.828C155.513 101.384 155.513 101.94 155.744 102.495C155.859 102.94 156.089 103.274 156.319 103.607C156.434 103.829 156.549 104.052 156.664 104.274C156.664 104.385 156.779 104.496 156.779 104.607C156.549 105.941 156.434 107.275 156.549 108.387C156.204 108.498 155.859 108.609 155.629 108.831C152.866 107.164 150.565 104.941 148.608 103.051ZM162.764 117.835C162.879 118.28 162.879 118.947 162.879 119.502C162.879 119.725 162.879 119.947 162.879 120.058C162.879 121.837 163.339 123.504 163.685 125.171C164.145 127.506 164.721 129.618 164.145 131.73C162.764 131.73 161.153 131.619 160.462 130.618C160.117 130.173 160.002 129.507 159.887 128.728C159.887 128.506 159.772 128.173 159.772 127.95C159.542 126.95 159.081 125.95 158.621 124.949C158.391 124.504 158.045 124.171 157.815 123.838C157.585 123.504 157.355 123.171 157.125 122.837C156.779 122.17 156.434 121.503 156.204 120.836C155.859 119.614 155.859 118.28 156.089 116.946C156.204 116.279 156.434 115.723 156.664 115.167C156.895 114.723 157.125 114.389 157.355 113.945C157.47 113.722 157.585 113.611 157.7 113.389C157.93 113.055 158.045 112.833 158.16 112.5C158.736 112.722 159.311 113.278 159.887 113.833C160.462 114.389 160.923 115.056 161.383 115.612L161.613 115.834C161.958 116.501 162.534 117.168 162.764 117.835ZM183.94 110.61C183.48 111.166 182.674 111.833 181.293 112.277C178.071 113.389 174.388 113.278 170.935 113.055C168.288 112.833 165.986 112.611 163.915 111.833C163.455 111.61 162.879 111.499 162.419 111.277C161.498 110.943 160.577 110.61 159.542 110.388C161.498 109.165 163.685 108.387 165.986 107.942C166.332 107.831 166.677 107.831 167.022 107.72C168.173 107.497 169.439 107.386 170.59 106.831C170.935 106.719 171.281 106.497 171.626 106.275C172.086 106.052 172.546 105.719 173.007 105.608C173.582 105.386 174.388 105.386 174.963 105.386H179.106C180.142 105.386 181.063 105.386 181.869 105.719C182.904 106.052 183.71 107.053 184.055 108.164C184.17 108.609 184.285 108.943 184.285 109.276C184.401 109.498 184.285 110.054 183.94 110.61Z" fill="#A1C5CB"/>
<path d="M310.652 148.514C310.192 147.402 309.502 146.513 308.236 145.513C304.208 142.401 299.029 141.956 294.08 141.511C292.469 141.4 290.742 141.178 289.016 140.956C282.916 140.066 277.047 137.399 272.443 133.397C273.249 131.73 274.055 129.84 274.63 127.839C274.86 127.061 275.09 126.283 275.321 125.394C275.551 124.393 275.781 123.504 276.011 122.504C276.126 122.059 276.241 121.503 276.356 120.948C276.587 120.058 276.817 119.169 277.047 118.169C277.277 117.502 277.507 116.724 277.622 115.946L278.428 113.056C278.428 112.944 278.543 112.833 278.543 112.722C279.464 110.054 280.5 107.276 280.96 104.386C281.881 99.0501 280.845 93.6035 279.809 88.6016C279.118 85.4892 278.428 82.3769 277.047 79.598C275.436 76.3745 273.019 73.818 270.142 72.5953C269.796 72.3729 269.221 72.2618 268.761 72.373C268.3 72.4841 267.84 72.8176 267.61 73.0399C265.078 75.3741 264.502 78.7088 263.812 81.9323C263.697 82.488 263.582 83.0438 263.467 83.5996C263.351 84.0442 263.236 84.6 263.121 85.1558C261.74 84.2665 260.129 83.8219 258.518 83.3773C257.367 83.0438 256.216 82.7104 255.18 82.2657C254.95 82.1546 254.72 82.0434 254.375 81.8211C253.914 81.4877 253.224 81.1542 252.648 81.043C251.382 80.5984 249.886 80.7096 248.275 81.1542C244.132 82.488 241.37 85.9338 239.874 88.6016C237.111 93.4924 236.306 98.939 237.457 103.83C236.421 103.941 235.73 104.608 235.04 105.386C233.083 107.72 231.127 110.054 229.285 112.278C228.02 113.834 226.638 115.501 225.603 117.391C225.027 118.391 224.567 119.503 224.222 120.725C222.61 126.061 224.912 132.174 229.631 135.287C231.127 136.287 232.853 136.954 234.464 137.621C235.04 137.843 235.615 138.065 236.306 138.288H236.191C235.615 138.288 235.155 138.288 234.58 138.288C234.004 138.288 233.429 138.399 232.853 138.288C231.357 138.177 229.861 137.732 228.25 137.176C227.444 136.954 226.523 136.62 225.718 136.398C222.495 135.509 219.043 135.62 215.935 136.509C215.245 136.732 214.324 137.065 213.749 137.843H213.634C213.403 137.843 213.173 138.065 212.943 138.177C212.828 138.399 212.713 138.621 212.828 138.844C212.943 139.844 213.288 140.733 213.749 141.622L214.784 144.29C215.015 144.735 215.13 145.291 215.59 145.846C215.935 146.402 216.511 146.736 216.971 146.958L224.912 152.516C226.984 153.961 229.401 155.628 232.163 156.406C233.083 156.628 234.004 156.74 234.925 156.74C235.27 156.74 235.73 156.74 236.076 156.628C237.687 156.406 239.068 155.85 240.219 154.961C242.06 155.517 244.247 155.406 246.894 154.294C247.469 154.072 248.045 153.849 248.735 153.516C250.231 152.849 251.497 152.293 252.994 152.071L253.339 151.96C253.799 151.849 254.375 151.849 254.95 151.626C255.641 151.404 256.101 150.959 256.446 150.626C260.014 147.514 263.351 144.179 266.344 140.511C268.3 139.177 270.027 137.287 271.523 135.064C276.471 139.066 282.571 141.845 288.901 142.845C290.627 143.067 292.354 143.29 294.08 143.401C298.683 143.846 303.517 144.179 306.97 146.847C307.775 147.514 308.351 148.181 308.696 148.848C309.271 150.404 308.466 152.182 307.775 153.961L307.315 154.739C306.509 156.74 305.819 158.74 305.358 160.741C305.358 160.963 305.243 161.186 305.243 161.408H307.66C307.66 161.186 307.775 160.963 307.775 160.741C308.236 158.963 308.811 157.295 309.502 155.628L309.617 155.183C310.652 153.183 311.573 150.848 310.652 148.514ZM263.697 90.2689C263.927 89.8243 264.042 89.2685 264.272 88.8239C264.502 88.1569 264.732 87.49 264.963 86.9342C265.308 86.045 265.538 85.0446 265.768 84.2665C265.883 83.7107 265.998 83.155 266.114 82.488C266.689 79.598 267.264 76.5968 269.336 74.5961C269.451 74.4849 269.451 74.4849 269.451 74.4849C269.451 74.4849 269.566 74.4849 269.681 74.5961C272.098 75.7076 274.17 77.8195 275.666 80.7096C277.047 83.3773 277.622 86.2673 278.313 89.2685C279.349 94.1593 280.269 99.3836 279.349 104.386C279.003 106.609 278.313 108.721 277.507 110.944C277.047 109.388 276.241 108.054 275.205 106.942C274.4 106.053 273.134 105.275 271.868 105.942C271.408 106.164 271.062 106.609 270.832 106.942C268.645 110.388 267.034 114.056 265.768 117.835C265.768 117.613 265.883 117.502 265.883 117.28C265.768 115.501 265.653 113.723 265.538 112.055C265.538 111.722 265.193 111.388 264.848 111.499C264.617 111.499 264.502 111.611 264.387 111.722C264.272 111.833 264.157 112.055 264.272 112.166C264.387 113.167 264.387 114.167 264.502 115.056C263.697 112.833 263.121 110.499 263.121 108.054C263.121 107.387 263.121 106.72 263.121 106.053C263.121 105.052 263.236 104.052 263.121 102.941C263.006 101.829 262.891 100.717 262.661 99.6059C262.431 98.4943 262.316 97.3828 262.201 96.2713C262.201 95.2709 262.201 94.3816 262.546 93.4924C262.546 93.3812 262.546 93.3812 262.546 93.2701C262.891 92.3808 263.236 91.3804 263.697 90.2689ZM264.732 121.392C264.732 121.392 264.617 121.392 264.732 121.392C264.502 120.614 264.272 119.836 264.042 118.947C264.272 119.28 264.387 119.614 264.617 119.947C264.617 120.392 264.732 120.836 264.732 121.392ZM249.771 83.2661C250.231 83.155 250.577 83.0438 251.037 83.0438C251.728 82.9327 252.303 83.0438 252.878 83.155C253.339 83.2661 253.799 83.5996 254.26 83.8219C254.49 83.9331 254.835 84.1554 255.065 84.2665C256.216 84.8223 257.482 85.1558 258.748 85.4892C260.244 85.9338 261.74 86.2673 262.776 87.0454C262.431 87.9346 262.085 88.8239 261.855 89.602C261.51 90.38 261.28 91.1581 261.05 91.8251C260.359 91.1581 259.784 90.4912 259.093 89.8243C257.137 87.9346 255.065 85.9338 252.418 84.6C251.267 84.0442 250.001 83.7107 248.85 83.5996C249.081 83.5996 249.426 83.3773 249.771 83.2661ZM242.405 89.9354C243.211 88.6016 244.247 87.0454 245.743 85.7115C247.584 85.3781 249.656 85.6004 251.497 86.4896C253.914 87.6012 255.756 89.4908 257.712 91.2693C258.633 92.1585 259.554 93.0478 260.474 94.0482C260.129 96.0489 260.474 98.0497 260.82 99.9394C260.935 100.94 261.165 102.051 261.28 103.052C261.395 104.052 261.28 105.052 261.28 105.942C261.28 106.609 261.28 107.387 261.28 108.054C261.28 108.721 261.395 109.276 261.395 109.943C261.28 110.054 261.28 110.166 261.28 110.388V110.499C261.97 114.945 262.891 119.28 264.042 123.615C264.042 123.727 264.042 123.727 263.927 123.838C263.236 121.726 262.661 119.725 261.97 117.613L259.554 109.276C259.438 108.943 259.093 108.721 258.748 108.832C258.633 108.832 258.403 108.943 258.288 109.165C258.172 109.276 258.172 109.499 258.172 109.61L260.589 117.946C260.82 118.725 261.05 119.614 261.28 120.503C259.669 117.502 258.403 114.278 257.367 110.833C257.367 110.721 257.252 110.499 257.022 110.388C256.907 110.277 256.676 110.277 256.561 110.277C256.331 110.277 256.216 110.388 256.101 110.61C255.986 110.721 255.986 110.944 255.986 111.055C256.561 113.167 257.367 115.168 258.172 117.057C258.172 117.057 258.172 116.946 258.057 116.946C257.712 116.501 257.367 116.057 257.022 115.612C255.525 113.056 254.26 110.388 253.224 107.609C253.109 107.498 252.994 107.276 252.878 107.276C252.763 107.164 252.533 107.164 252.303 107.276C252.188 107.387 251.958 107.498 251.958 107.609C251.958 107.72 251.843 107.943 251.958 108.054C252.533 109.61 253.224 111.166 254.029 112.611C252.533 111.499 250.807 110.61 249.081 109.943L248.62 109.832C248.16 109.721 247.7 109.499 247.354 109.388C246.894 109.165 246.549 108.832 246.088 108.498L245.858 108.387C244.132 107.053 242.405 105.831 240.449 104.83C240.334 104.608 240.334 104.497 240.219 104.274C239.068 99.9394 239.758 94.6039 242.405 89.9354ZM227.674 118.502C228.71 116.724 229.976 115.168 231.127 113.723C232.968 111.388 234.925 109.054 236.881 106.831C237.111 106.498 237.572 106.053 237.917 105.942L237.802 105.497L237.917 105.942C238.032 105.942 238.147 105.942 238.377 106.053C238.493 106.164 238.608 106.164 238.838 106.275C239.874 106.831 240.909 107.387 241.945 108.054C242.981 108.721 243.902 109.388 244.822 110.166L245.052 110.277C245.513 110.61 246.088 111.055 246.664 111.388C247.239 111.722 247.815 111.833 248.275 112.055L248.62 112.166C251.843 113.278 254.72 115.501 256.676 118.28C257.597 119.614 258.288 121.059 258.748 122.504C258.633 122.504 258.633 122.393 258.633 122.393L258.403 122.17C255.641 120.17 252.878 118.058 250.462 116.279C250.116 116.057 249.771 116.057 249.541 116.39C249.311 116.613 249.311 117.057 249.656 117.28C252.188 119.169 255.065 121.281 257.827 123.393L257.942 123.504C258.518 123.949 259.093 124.393 259.669 124.838C259.669 124.949 259.784 125.06 259.784 125.06C259.323 124.838 258.863 124.616 258.403 124.393C255.871 123.282 253.454 122.281 251.613 120.503C251.382 120.281 250.922 120.281 250.692 120.503C250.577 120.614 250.462 120.836 250.462 120.948C250.462 121.17 250.577 121.281 250.692 121.392C252.648 123.393 255.295 124.505 257.827 125.505C258.633 125.838 259.438 126.283 260.359 126.617C260.359 126.728 260.359 126.728 260.359 126.839C257.712 126.505 255.295 126.061 252.994 124.949C252.878 124.838 252.648 124.838 252.533 124.949C252.303 124.949 252.188 125.06 252.073 125.283C251.958 125.394 251.958 125.616 252.073 125.727C252.073 125.838 252.188 126.061 252.418 126.061C255.065 127.395 257.942 127.839 260.82 128.173L260.935 128.617C257.022 128.395 253.109 127.395 249.541 125.505C249.426 125.394 249.196 125.394 249.081 125.505C248.965 125.505 248.735 125.616 248.62 125.838C248.505 125.95 248.505 126.172 248.62 126.283C248.62 126.505 248.735 126.617 248.965 126.728C251.267 127.95 253.799 128.84 256.446 129.395C255.871 129.507 255.295 129.507 254.72 129.618C253.339 129.84 252.073 130.173 250.807 130.507C250.462 130.618 250.231 130.952 250.347 131.285C250.462 131.507 250.692 131.73 251.037 131.73H251.152H251.267C252.418 131.396 253.684 131.063 254.95 130.84C255.986 130.729 257.022 130.618 258.057 130.507C258.748 130.396 259.554 130.396 260.244 130.285C259.669 130.618 259.093 130.952 258.518 131.174C257.022 132.063 255.41 132.841 253.799 133.508C253.684 133.619 253.454 133.73 253.454 133.842C253.339 133.953 253.339 134.175 253.454 134.286C253.569 134.509 253.799 134.731 254.144 134.731H254.26C254.375 134.731 254.375 134.731 254.49 134.731C256.216 134.064 257.827 133.175 259.438 132.285C259.899 132.063 260.359 131.841 260.82 131.618C260.474 132.73 260.014 133.73 259.438 134.731C257.367 135.398 255.295 136.176 253.224 137.065C251.843 136.732 250.347 136.62 248.85 136.509C248.045 136.398 247.239 136.398 246.434 136.287C243.671 135.954 241.715 135.064 240.564 133.619C240.104 132.952 239.643 132.285 239.298 131.396C238.838 130.507 238.493 129.729 237.802 128.84C236.536 127.283 234.81 126.505 233.083 125.616C231.702 124.949 230.436 124.393 229.516 123.393C227.674 122.504 227.329 120.836 227.674 118.502ZM235.385 136.065C233.889 135.398 232.278 134.842 230.897 133.953C227.214 131.507 225.257 127.061 225.948 122.837C226.293 123.727 226.754 124.393 227.444 125.06C228.595 126.172 230.091 126.839 231.472 127.617C233.083 128.395 234.464 129.062 235.5 130.285C235.961 130.952 236.421 131.618 236.766 132.508C237.227 133.397 237.572 134.286 238.262 135.064C239.758 136.843 242.175 137.954 245.398 138.399C246.203 138.51 247.124 138.621 248.045 138.621C248.505 138.621 248.85 138.732 249.311 138.732C248.16 139.288 247.009 139.733 245.858 139.844H245.743C242.29 138.844 238.838 137.399 235.385 136.065ZM215.705 141.4L215.59 141.178C215.36 140.511 215.13 139.844 215.36 139.399C215.59 139.066 216.165 138.844 216.626 138.621C217.547 138.399 218.467 138.177 219.388 138.065C219.963 137.954 220.654 137.954 221.229 137.954C222.61 137.954 223.991 138.177 225.373 138.51C226.178 138.732 226.984 138.955 227.789 139.288C229.401 139.844 231.127 140.4 232.853 140.511C233.544 140.511 234.234 140.511 234.81 140.511C235.27 140.511 235.73 140.511 236.191 140.511C237.457 140.511 238.838 140.844 240.219 141.067C241.83 141.4 243.671 141.734 245.513 141.622C245.743 141.622 245.858 141.622 246.088 141.622C247.469 141.4 248.62 140.956 249.886 140.511C250.347 140.289 250.692 140.177 251.152 139.955L251.613 139.733C251.958 139.51 252.418 139.399 252.763 139.177C253.684 138.732 254.49 138.399 255.41 138.065C255.756 137.954 256.101 137.843 256.331 137.732C255.065 138.844 253.569 139.733 252.073 140.289C251.037 140.622 249.886 140.844 248.85 141.178C246.664 141.622 244.477 142.178 242.636 143.512C241.6 144.29 241.6 144.957 241.715 145.402C241.715 145.624 241.83 145.846 242.06 146.069C241.945 146.069 241.83 146.18 241.6 146.18C241.37 146.18 241.255 146.291 241.024 146.291C240.104 146.513 239.183 146.847 238.377 147.18C237.572 147.514 236.881 147.736 236.076 147.958C235.04 148.181 233.889 148.069 232.738 148.069C232.048 148.069 231.242 147.958 230.551 147.958C229.861 147.958 229.055 148.069 228.365 148.069C227.789 148.181 227.099 148.181 226.523 148.181C221.92 148.181 217.547 145.291 215.705 141.4ZM242.866 146.624C242.751 146.624 242.751 146.513 242.636 146.513L242.521 146.402L242.636 146.513C242.751 146.513 242.751 146.624 242.866 146.624ZM255.065 149.737C254.72 150.07 254.375 150.293 254.029 150.404C253.799 150.515 253.339 150.626 252.994 150.626L252.533 150.737C250.807 150.959 249.311 151.626 247.815 152.293C247.239 152.516 246.664 152.738 246.088 152.96C243.787 153.849 241.83 154.072 240.334 153.405C239.989 153.183 239.528 153.294 239.183 153.627C237.802 155.072 235.155 155.628 232.623 154.961C230.206 154.294 228.02 152.849 225.948 151.293L223.531 149.626C224.337 149.848 225.257 149.848 226.063 149.848H226.408C227.099 149.848 227.789 149.737 228.48 149.737C229.17 149.626 229.861 149.626 230.436 149.626C231.127 149.626 231.817 149.626 232.508 149.737C233.544 149.848 234.58 149.848 235.73 149.737C235.961 149.737 236.191 149.626 236.421 149.626C237.342 149.403 238.262 149.07 239.068 148.736C239.874 148.403 240.564 148.181 241.37 147.958C241.485 147.958 241.715 147.847 241.83 147.847C242.29 147.736 242.866 147.736 243.441 147.514C243.671 147.402 243.787 147.291 244.017 147.18C245.398 147.736 246.894 147.958 248.16 147.958C248.735 147.958 249.311 147.958 249.771 147.847C250.347 147.736 250.922 147.625 251.497 147.514C253.799 146.958 255.986 145.957 258.057 144.957C258.518 144.735 258.978 144.512 259.438 144.29L260.589 143.734C260.82 143.623 261.165 143.512 261.395 143.401C259.438 145.735 257.367 147.847 255.065 149.737ZM270.832 132.619C269.336 135.62 267.38 137.954 265.078 139.51C264.963 139.51 264.963 139.622 264.848 139.622C263.236 140.622 261.51 141.4 259.784 142.178C259.323 142.401 258.978 142.512 258.633 142.734C258.172 142.956 257.712 143.179 257.252 143.401C255.295 144.29 253.224 145.291 251.037 145.735C249.886 146.069 247.815 146.291 245.858 145.846C245.168 145.624 244.477 145.402 243.902 145.068C244.017 144.957 244.017 144.957 244.132 144.957C245.628 143.957 247.469 143.512 249.426 143.067C250.577 142.845 251.728 142.512 252.878 142.178C256.791 140.844 259.899 137.843 261.51 134.175C261.625 133.842 261.74 133.508 261.855 133.175C261.97 132.73 262.201 132.174 262.316 131.73C262.431 131.396 262.431 131.174 262.546 130.84C262.661 130.285 262.776 129.84 262.891 129.284C263.006 129.062 263.121 128.728 263.236 128.506C263.467 128.062 263.812 127.617 264.157 127.172C264.387 126.95 264.617 126.617 264.732 126.394C265.538 125.172 266.114 123.838 266.574 122.393C266.804 121.837 266.919 121.281 267.034 120.725C267.034 120.503 267.149 120.281 267.149 120.17C267.149 120.058 267.264 119.947 267.264 119.836C268.415 115.723 270.142 111.722 272.558 108.054C272.674 107.943 272.789 107.72 272.904 107.72C273.019 107.72 273.364 107.831 273.824 108.276C275.436 110.054 276.356 112.611 276.126 115.056C276.126 115.168 276.126 115.279 276.126 115.39C275.551 117.28 275.205 119.169 274.745 120.948C274.63 121.503 274.515 121.948 274.4 122.504C274.17 123.393 273.939 124.171 273.824 125.06C273.594 125.95 273.364 126.728 273.134 127.617C273.134 127.728 273.019 127.839 273.019 127.95C272.213 129.507 271.523 131.174 270.832 132.619Z" fill="#A1C5CB"/>
<path d="M115.232 124.282C114.427 123.17 113.736 122.17 113.046 121.059C112.816 120.614 112.47 120.28 112.24 119.836C112.125 119.613 111.895 119.28 111.78 119.058C107.752 112.499 104.874 105.385 103.263 98.0492L103.148 97.3822C103.148 97.1599 103.033 97.0488 102.803 96.9376C102.688 96.8265 102.458 96.8265 102.343 96.9376L101.652 97.2711C97.5089 99.0496 95.2071 103.385 94.7468 110.276C93.9412 121.059 95.5524 130.618 99.6955 138.621C102.918 144.957 107.637 150.181 113.276 153.85C113.966 154.294 114.542 154.628 115.232 154.961C116.959 155.962 118.8 156.74 120.641 157.407V157.629C120.641 157.851 120.757 158.185 120.757 158.407C120.872 158.74 120.872 158.963 120.872 159.296C120.872 159.407 120.872 159.519 120.987 159.63C120.987 159.741 121.102 159.852 121.102 160.074C121.217 160.519 121.332 160.964 121.562 161.408V161.519H124.094C124.094 161.408 124.094 161.408 124.094 161.408C123.979 161.297 123.979 161.075 123.864 160.964C123.749 160.63 123.634 160.297 123.519 159.963C123.519 159.852 123.519 159.852 123.404 159.741C123.288 159.407 123.173 158.963 123.173 158.629C123.058 158.185 123.058 157.851 122.943 157.407C122.943 157.407 122.943 157.407 122.943 157.295L123.058 156.962H123.173H123.288C123.634 157.073 123.979 156.851 123.979 156.517C124.094 155.962 124.209 155.517 124.324 154.961C124.439 154.517 124.439 154.183 124.554 153.85C126.971 140.955 120.526 131.73 115.232 124.282ZM103.148 107.497C103.263 107.275 103.263 106.942 103.378 106.719C105.105 111.388 107.176 115.945 109.938 120.28C110.053 120.503 110.284 120.836 110.399 121.059C110.629 121.392 110.859 121.837 111.089 122.17C111.204 122.392 111.319 122.504 111.434 122.726C111.55 122.948 111.78 123.17 111.895 123.393H111.55C111.434 123.393 111.204 123.393 111.089 123.504C110.974 123.615 110.859 123.726 110.859 123.949C110.399 127.728 110.399 131.73 110.744 135.953C109.248 133.508 107.867 130.951 106.601 128.395C105.105 125.505 103.493 122.615 102.688 119.502C101.652 115.612 101.767 111.388 103.148 107.497ZM97.624 124.393C97.5089 124.06 97.5089 123.615 97.3938 123.282C97.3938 123.059 97.2787 122.726 97.2787 122.504C97.1636 121.948 97.1636 121.392 97.0485 120.836C97.0485 120.614 97.0485 120.28 96.9334 120.058C96.7033 116.946 96.7033 113.722 96.9334 110.388C97.2787 105.941 98.3145 102.829 100.156 100.939C100.501 100.606 100.846 100.383 101.192 100.05C101.307 100.717 101.537 101.273 101.652 101.94C101.767 102.273 101.882 102.607 101.882 102.94C101.882 103.162 101.997 103.274 101.997 103.496L101.882 103.607C101.767 103.829 101.652 103.94 101.652 104.163C101.422 104.607 101.307 104.941 101.077 105.385C99.2352 110.054 98.8899 115.278 100.156 120.058C101.077 123.393 102.688 126.505 104.299 129.395C104.414 129.618 104.529 129.84 104.644 130.062C102.343 128.173 100.156 126.283 97.739 124.393C97.8541 124.504 97.739 124.393 97.624 124.393ZM119.836 154.628C119.145 154.405 118.57 154.072 117.879 153.738C111.089 150.515 105.45 144.735 101.767 137.51C100.271 134.508 99.1201 131.174 98.3145 127.728C101.652 130.396 104.874 133.175 107.982 135.842C109.133 137.954 110.514 140.066 112.01 142.067C112.47 143.179 113.161 144.179 114.197 144.846C114.197 144.846 114.197 144.846 114.197 144.957L114.312 145.068C115.347 146.402 116.498 147.736 117.419 149.181C118.57 150.96 119.26 152.738 119.836 154.628ZM122.023 153.738C121.447 151.738 120.526 149.848 119.491 148.069C118.57 146.624 117.419 145.179 116.383 143.846V143.734C116.383 143.623 116.268 143.512 116.153 143.401C116.038 143.401 116.038 143.29 115.923 143.29C115.463 142.845 115.117 142.289 114.772 141.845C114.542 141.622 114.427 141.4 114.197 141.067C113.736 139.955 113.506 138.621 113.391 137.51C112.931 133.286 112.931 129.173 113.276 125.394C113.276 125.505 113.391 125.505 113.391 125.505C118.34 132.73 124.554 141.622 122.023 153.738Z" fill="#A1C5CB"/>
<path d="M666.503 95.3822C665.928 92.9368 664.547 90.936 662.59 89.7133C659.253 87.7125 654.649 87.9348 650.161 90.2691C648.089 91.3806 646.248 92.7145 644.521 94.0483C647.629 86.4898 650.161 78.709 651.772 70.7058C654.879 68.1492 657.181 64.1477 657.872 59.4792C658.562 55.033 658.102 50.6979 657.411 45.9183C657.066 43.1394 656.145 39.9159 653.268 38.8044C651.657 38.1374 649.585 38.4709 647.744 39.5824C641.99 42.9171 640.954 50.2533 641.874 56.1445C642.91 62.0357 645.327 67.4823 649.125 72.1508C647.284 80.5986 644.406 88.824 640.839 96.8272C640.724 96.8272 640.724 96.9383 640.608 96.9383C640.493 97.0495 640.378 97.1607 640.378 97.2718C640.378 97.383 640.378 97.6053 640.493 97.7164C638.652 101.718 636.58 105.608 634.394 109.388C636.235 103.83 637.386 98.1611 637.846 92.381C638.077 89.3798 637.962 82.0436 632.437 80.0428C628.639 78.709 624.611 80.8209 622.54 83.7109C620.583 86.4898 620.008 89.9356 619.547 93.1591C618.282 102.83 617.706 115.057 623.576 125.172C612.297 139.511 598.141 151.738 582.144 160.741C581.799 160.964 581.454 161.186 580.993 161.408H585.712C586.057 161.186 586.402 160.964 586.748 160.741C601.709 151.738 614.944 139.955 625.532 126.283L626.107 125.95C626.223 125.839 626.338 125.727 626.338 125.616C626.338 125.505 626.338 125.394 626.338 125.283C626.683 124.949 626.913 124.505 627.258 124.171C627.489 123.949 627.719 123.727 627.834 123.504C627.949 123.282 628.064 123.171 628.179 122.949C633.128 116.168 637.501 109.054 641.184 101.496C644.176 104.941 647.859 107.165 651.772 107.943C652.578 108.054 653.498 108.165 654.419 108.165H654.534C658.907 108.165 663.051 106.164 665.237 103.052C666.618 100.94 667.079 98.0499 666.503 95.3822ZM644.176 55.6999C643.371 50.8091 644.061 44.2509 648.895 41.4721C649.7 41.0274 650.621 40.694 651.427 40.694C651.772 40.694 652.117 40.8051 652.463 40.8051C654.304 41.4721 654.879 44.0286 655.11 46.1406C655.8 50.8091 656.26 54.9218 655.57 59.0345C654.879 63.3696 652.808 67.0377 649.931 69.1496C646.938 65.2592 644.982 60.5907 644.176 55.6999ZM626.107 121.726C626.107 121.837 626.107 121.837 626.107 121.726C625.877 121.948 625.762 122.282 625.532 122.504C625.417 122.615 625.187 122.615 625.187 122.615C625.072 122.615 624.957 122.615 624.842 122.615C620.123 113.278 620.698 102.163 621.849 93.3814C622.194 90.3802 622.77 87.2679 624.381 84.9336C625.532 83.2663 627.719 81.8213 629.905 81.8213C630.481 81.8213 630.941 81.9324 631.517 82.0436C635.545 83.4886 635.545 89.491 635.314 92.0475C634.624 102.496 631.402 112.722 626.107 121.726ZM663.166 101.829C660.979 104.941 656.491 106.498 652.232 105.72C648.55 105.053 644.982 102.718 642.335 99.1614C642.45 98.828 642.565 98.6057 642.795 98.2722C643.946 97.4941 645.097 96.6049 646.133 95.938C647.859 94.6041 649.585 93.3814 651.427 92.381C655.11 90.4914 658.792 90.2691 661.439 91.7141C662.936 92.6033 663.971 94.0483 664.317 95.938C664.662 97.9387 664.317 100.162 663.166 101.829Z" fill="#A1C5CB"/>
<path d="M696.541 112.611C696.08 105.719 693.778 101.384 689.75 99.4945L689.06 99.161C688.945 99.0498 688.715 99.0498 688.6 99.161C688.484 99.2722 688.369 99.3833 688.254 99.6056L688.139 100.273C686.413 107.72 683.536 114.723 679.392 121.281C679.047 121.281 678.817 121.615 678.932 121.948V122.059C678.702 122.504 678.357 122.837 678.127 123.282C677.436 124.282 676.746 125.283 676.055 126.283L675.94 126.505C670.301 134.509 663.28 144.402 667.078 158.63C667.193 158.963 667.538 159.074 667.769 159.074H667.884V159.185V159.297C667.884 159.408 667.999 159.519 668.114 159.63V159.741C668.229 159.964 668.459 160.186 668.689 160.186C668.804 160.186 668.804 160.186 668.804 160.186C668.804 160.186 668.804 160.186 668.92 160.186L669.15 160.297C669.265 160.297 669.38 160.408 669.38 160.408C669.61 160.408 669.84 160.297 669.955 160.075C669.955 159.964 670.07 159.852 670.07 159.852C678.932 156.851 686.643 150.071 691.247 141.178C695.505 132.841 697.231 123.393 696.541 112.611ZM681.234 122.615C684.687 117.168 687.334 111.277 689.175 105.275C690.441 109.165 690.556 113.389 689.405 117.28C688.6 120.392 686.988 123.282 685.377 126.172C683.996 128.617 682.615 131.174 681.119 133.62C681.579 129.84 681.579 126.172 681.234 122.615ZM669.38 153.183C669.265 153.739 669.15 154.295 669.035 154.85C668.919 155.295 668.919 155.628 668.804 156.073C666.388 143.957 672.717 135.065 677.781 127.839C678.242 127.172 678.702 126.617 679.047 125.95C679.162 128.84 679.047 131.952 678.702 135.176C678.587 136.287 678.357 137.51 677.896 138.622C677.666 138.844 677.551 139.177 677.321 139.4C676.976 139.844 676.515 140.4 676.055 140.845C675.94 140.845 675.94 140.956 675.825 140.956C675.71 141.067 675.595 141.178 675.595 141.289V141.4C674.444 142.734 673.408 144.068 672.372 145.624C670.991 147.959 669.955 150.515 669.38 153.183ZM689.29 139.844C685.262 147.736 678.702 153.739 671.106 156.74C671.221 156.184 671.336 155.628 671.451 155.073C671.567 154.517 671.682 154.072 671.682 153.517C672.142 151.182 673.178 148.848 674.444 146.847C675.364 145.402 676.515 144.068 677.666 142.734L677.781 142.623C678.817 141.956 679.508 140.956 679.968 139.955C681.464 137.955 682.845 135.843 684.111 133.62C687.219 130.952 690.441 128.284 693.778 125.727C692.973 130.841 691.477 135.62 689.29 139.844ZM694.124 122.393C691.822 124.171 689.52 126.061 687.334 127.951C687.449 127.728 687.564 127.506 687.679 127.284C689.29 124.394 690.901 121.281 691.822 117.946C693.203 113.167 692.858 107.942 691.016 103.274C692.858 105.163 693.894 108.387 694.239 112.722C694.354 116.057 694.354 119.28 694.124 122.393Z" fill="#A1C5CB"/>
<path d="M92.1001 160.852C88.6474 157.073 86.1155 152.738 84.159 148.959C83.3534 147.402 82.5478 145.846 81.7422 144.29L81.6271 144.068C78.9801 138.843 76.218 133.397 72.4201 128.617C75.2973 125.838 77.1387 122.059 77.4839 118.057C77.7141 116.39 77.599 114.612 77.4839 112.944C77.4839 112.055 77.3688 111.166 77.3688 110.277C77.3688 108.387 77.4839 106.497 77.7141 104.608C78.0594 101.495 78.2895 98.2718 77.8292 95.0483C77.8292 94.826 77.7141 94.6037 77.7141 94.3814V94.1591C77.599 93.381 77.3688 92.4918 77.3688 91.8248C77.3688 91.4914 77.4839 91.1579 77.4839 90.8244C77.4839 90.491 77.2538 90.2687 77.0236 90.1575L75.8727 89.9352C75.5274 89.824 75.2973 90.0463 75.1822 90.3798C75.0671 90.7133 75.0671 91.1579 75.0671 91.3802C74.4916 94.7149 72.6502 97.716 70.6938 100.94C69.8881 102.273 69.0825 103.607 68.2769 105.052C66.0902 109.165 65.0545 113.167 65.1695 117.057C65.1695 118.502 65.3997 120.058 65.8601 121.392C65.3997 120.947 64.9394 120.614 64.8243 120.503C62.5225 119.058 59.5303 117.057 56.0776 116.612C54.5815 116.057 53.0853 115.501 51.4741 115.056C51.4741 115.056 51.5892 114.945 51.5892 114.834C51.5892 114.723 51.5892 114.5 51.4741 114.389L46.5253 105.942C42.4973 99.0499 37.8938 91.1579 37.5485 82.7101L37.4334 80.3758C37.4334 80.1535 37.2032 79.9312 36.9731 79.8201C36.7429 79.8201 36.3976 79.9312 36.2825 80.1535L35.2468 82.3766C32.2545 88.7125 32.1394 96.271 34.9015 102.718C36.858 107.053 40.0804 110.944 44.1085 113.722C38.9296 113.167 33.7506 113.5 28.8018 114.834C28.6868 114.389 28.3415 113.945 27.9962 113.5C26.9604 112.389 25.5794 112.055 24.3134 111.944C22.5871 111.722 20.8608 111.61 19.1345 111.499C16.6026 111.388 14.3008 111.277 12.1141 110.721C7.39555 109.387 3.59765 105.497 2.44678 100.94L1.18081 95.7153C1.06573 95.3818 0.835551 95.2706 0.490288 95.2706C0.145025 95.2706 -0.08515 95.6041 0.0299377 95.8264L0.260113 101.384C0.375201 104.274 0.490288 107.275 1.2959 110.165C2.33169 113.5 4.28818 116.168 6.82011 117.613C8.66151 118.724 10.8482 119.169 13.6103 119.169H13.7254C15.5668 119.169 17.4082 118.947 19.1345 118.724L26.7303 117.724C26.8454 117.835 27.0755 117.835 27.3057 117.835C34.6713 115.279 42.9576 115.279 50.5534 117.279C48.4818 118.057 46.6404 119.28 44.799 120.503C43.418 121.392 42.0369 122.392 40.6559 123.059C35.9373 125.283 30.1829 125.06 25.119 124.838L22.3569 124.727C22.1268 124.727 21.7815 124.949 21.7815 125.171C21.6664 125.394 21.8966 125.727 22.1268 125.838L24.6587 127.061C28.5717 128.951 33.1752 129.951 37.6636 129.951H37.7787C40.0804 129.951 42.2671 129.729 44.4538 129.173C46.1801 128.728 47.9064 128.284 49.7478 127.839C53.6608 126.728 57.8039 125.616 61.9471 125.505H62.4074C62.8678 125.505 63.3281 125.394 63.7885 125.394C63.9036 125.394 64.0187 125.394 64.2488 125.394C64.7092 125.505 65.2846 125.616 65.8601 125.394C65.9752 125.394 66.0902 125.283 66.0902 125.283C67.3562 126.394 68.6222 127.617 69.658 128.839C71.3843 130.84 72.9955 133.175 74.3766 135.398C68.7373 131.618 61.4867 130.173 54.8117 132.063C52.7401 132.619 50.7836 133.508 48.8271 134.286C45.0292 135.953 41.4615 137.51 37.6636 136.843L35.4769 136.509C35.2468 136.509 34.9015 136.62 34.7864 136.843C34.6713 137.065 34.7864 137.398 34.9015 137.51L36.858 139.177C41.2313 142.734 46.9857 144.512 52.7401 143.957C54.8117 143.734 56.6531 143.401 58.6096 142.956C60.1057 142.623 61.7169 142.289 63.2131 142.067C68.0467 141.4 73.2257 142.4 77.4839 144.735L77.7141 144.846C77.8292 144.957 77.9443 144.957 77.9443 144.957C78.0594 144.957 78.0594 144.957 78.1745 144.846L78.9801 144.512C79.0952 144.512 79.0952 144.512 79.2103 144.401C79.3253 144.624 79.4404 144.735 79.4404 144.957C80.246 146.624 81.0516 148.18 81.9723 149.848C83.8138 153.294 86.0004 157.184 88.9927 160.741C89.1078 160.963 89.338 161.186 89.5681 161.408H92.7906C92.5604 161.186 92.3302 161.074 92.1001 160.852ZM18.7892 116.501C14.7612 117.057 10.9633 117.391 8.08607 115.723C6.0145 114.612 4.40327 112.389 3.59765 109.61C3.36748 108.943 3.25239 108.165 3.1373 107.387C5.32397 110.165 8.31625 112.166 11.6538 113.167C14.1857 113.834 16.8327 113.945 19.3647 114.056C20.9759 114.167 22.7022 114.167 24.1983 114.389C25.004 114.5 25.9247 114.723 26.385 115.279C26.5001 115.39 26.5001 115.501 26.6152 115.501L18.7892 116.501ZM37.2032 102.051C35.3618 97.716 34.9015 92.8252 35.9373 88.2679C37.4334 95.2706 41.2313 101.606 44.5689 107.387L48.2517 113.611C43.1878 111.055 39.2748 106.942 37.2032 102.051ZM62.4074 123.282H61.7169C57.3436 123.504 53.0853 124.616 49.0573 125.727C47.446 126.172 45.6046 126.616 43.8783 127.061C40.3106 127.839 36.3976 127.95 32.7148 127.283C35.8222 127.061 38.8145 126.505 41.8068 125.171C43.418 124.393 44.9141 123.393 46.2952 122.504C48.8271 120.725 51.2439 119.169 54.1211 118.947C54.5815 118.947 55.0418 118.947 55.5022 118.947C58.2643 120.058 60.9113 121.503 63.3281 123.171C62.9829 123.282 62.6376 123.282 62.4074 123.282ZM67.5864 117.168C67.4713 113.722 68.5071 110.054 70.4636 106.275C71.1541 104.941 72.0748 103.496 72.7653 102.273C73.8011 100.606 74.8369 98.8276 75.7576 97.0491C75.9878 99.4945 75.7576 102.051 75.5274 104.608C75.2973 106.497 75.1822 108.498 75.1822 110.499C75.1822 111.388 75.2973 112.277 75.2973 113.278C75.4124 114.834 75.5274 116.501 75.2973 117.946C74.952 121.17 73.5709 124.282 71.2692 126.728C68.9674 124.171 67.5864 120.836 67.5864 117.168ZM66.2053 139.622C65.1695 139.622 64.0187 139.733 62.8678 139.844C61.2566 140.066 59.6453 140.4 58.0341 140.733H57.919C56.1927 141.178 54.2362 141.511 52.5099 141.733C48.712 142.067 44.9141 141.289 41.5766 139.51C44.4538 139.066 47.331 137.954 49.978 136.732H50.0931C51.9345 135.953 53.7759 135.175 55.6173 134.62C63.6734 132.396 72.9955 135.509 77.8292 142.178C77.9443 142.289 77.9443 142.4 78.0594 142.512C74.3766 140.622 70.3485 139.622 66.2053 139.622Z" fill="#A1C5CB"/>
<path d="M804.607 95.0482C804.262 95.0482 804.032 95.1593 803.917 95.4928L802.536 100.828C801.385 105.386 797.472 109.276 792.753 110.61C790.451 111.277 788.15 111.277 785.618 111.388C785.503 111.388 785.272 111.388 785.157 111.388C783.661 111.388 782.05 111.499 780.439 111.722C779.173 111.944 777.792 112.166 776.756 113.278C776.411 113.611 776.181 114.056 775.95 114.5C771.002 113.167 765.823 112.722 760.644 113.278C764.672 110.499 768.009 106.72 769.966 102.384C772.843 96.0486 772.728 88.3788 769.851 82.0429L768.815 79.8198C768.7 79.5975 768.47 79.3752 768.124 79.4864C767.894 79.4864 767.664 79.7087 767.664 80.0421L767.549 82.3764C767.089 90.8242 762.485 98.6052 758.342 105.497L753.278 113.945C753.163 114.167 753.163 114.389 753.278 114.612C751.667 115.056 750.171 115.501 748.675 116.168C745.337 116.612 742.23 118.502 739.928 120.058C739.928 120.058 739.468 120.392 738.892 120.836C739.352 119.502 739.583 117.946 739.583 116.501C739.698 112.611 738.662 108.609 736.59 104.496C735.785 103.051 734.979 101.495 734.174 100.272C732.217 97.049 730.491 94.0478 729.915 90.8242C729.915 90.3796 729.8 90.0462 729.8 89.7127C729.685 89.3792 729.455 89.2681 729.11 89.2681L727.959 89.4904C727.613 89.4904 727.383 89.8238 727.498 90.1573C727.498 90.4908 727.614 90.8242 727.614 91.0466C727.614 91.8246 727.498 92.6027 727.268 93.492V93.7143C727.268 93.9366 727.153 94.1589 727.153 94.3812C726.578 97.6048 726.808 100.828 727.153 103.941C727.268 105.83 727.498 107.72 727.498 109.61C727.498 110.499 727.383 111.388 727.383 112.277C727.268 113.945 727.153 115.612 727.268 117.39C727.614 121.392 729.455 125.171 732.332 127.95C728.419 132.619 725.657 138.065 723.01 143.29L722.895 143.401C722.089 144.957 721.284 146.513 720.478 148.07C718.291 152.182 715.414 156.962 711.501 160.852C711.271 161.075 711.041 161.297 710.926 161.519H714.148C714.378 161.297 714.493 161.075 714.724 160.852C718.061 157.073 720.593 152.849 722.665 149.07C723.47 147.514 724.391 145.846 725.197 144.179C725.312 143.957 725.427 143.846 725.427 143.623H725.542L726.348 143.957C726.463 143.957 726.463 143.957 726.578 143.957C726.693 143.957 726.808 143.957 726.808 143.846L727.038 143.734C731.411 141.4 736.475 140.511 741.309 141.178C742.805 141.4 744.416 141.734 745.912 142.067C747.754 142.512 749.71 142.956 751.782 143.068C757.421 143.623 763.291 141.845 767.664 138.399L769.39 137.065C769.621 136.954 769.621 136.62 769.505 136.398C769.39 136.176 769.16 136.065 768.815 136.065L766.628 136.398C762.945 136.954 759.378 135.398 755.58 133.73C753.623 132.841 751.667 132.063 749.71 131.396C743.15 129.506 735.785 130.84 730.145 134.62C731.527 132.285 733.138 130.062 734.979 128.061C736.13 126.839 737.281 125.616 738.662 124.504C738.777 124.504 738.892 124.616 738.892 124.616C739.352 124.727 740.043 124.727 740.503 124.616C740.618 124.616 740.734 124.616 740.849 124.616C741.309 124.616 741.654 124.616 742.115 124.727H742.92C747.063 124.949 751.091 126.061 755.119 127.172C756.846 127.617 758.572 128.173 760.414 128.617C762.6 129.173 764.902 129.395 767.204 129.395H767.319C771.807 129.395 776.296 128.395 780.209 126.616L782.741 125.394C782.971 125.283 783.086 124.949 783.086 124.727C782.971 124.504 782.741 124.282 782.51 124.282L779.748 124.393C774.684 124.616 769.045 124.727 764.211 122.504C762.83 121.837 761.449 120.836 760.068 119.947C758.227 118.724 756.385 117.39 754.314 116.612C761.91 114.612 770.196 114.723 777.562 117.279C777.792 117.391 778.022 117.279 778.137 117.168L785.042 118.169L785.733 118.28C787.344 118.502 789.185 118.724 791.142 118.724H791.257C794.019 118.724 796.206 118.28 798.047 117.168C800.694 115.723 802.651 113.055 803.687 109.721C804.607 106.831 804.722 103.829 804.837 100.939L805.068 95.3816C805.068 95.2705 804.952 95.0482 804.607 95.0482ZM743.726 133.063C745.682 133.063 747.524 133.286 749.25 133.842C751.091 134.397 753.048 135.175 754.889 136.065C757.536 137.287 760.298 138.51 763.291 138.844C759.953 140.622 756.04 141.4 752.242 140.956C750.401 140.844 748.559 140.4 746.718 139.955C745.107 139.622 743.496 139.177 741.884 138.955C736.705 138.288 731.411 139.177 726.808 141.4C726.808 141.289 726.923 141.178 727.038 141.067C730.606 136.176 737.051 133.063 743.726 133.063ZM733.713 125.838C731.526 123.393 730.145 120.281 729.8 117.057C729.685 115.501 729.8 113.834 729.915 112.388V112.277C729.915 111.388 730.03 110.499 730.03 109.61C730.03 107.609 729.915 105.608 729.685 103.718C729.455 101.273 729.225 98.7163 729.455 96.1597C730.26 97.9382 731.296 99.7167 732.332 101.495C733.138 102.829 733.943 104.163 734.634 105.497C736.59 109.276 737.511 112.944 737.396 116.39C737.281 120.058 735.9 123.393 733.713 125.838ZM758.687 121.948C760.068 122.837 761.564 123.949 763.176 124.727C766.053 126.172 769.275 126.728 772.268 126.95C768.47 127.617 764.672 127.506 760.989 126.616C759.263 126.172 757.536 125.727 755.81 125.283C751.782 124.171 747.524 122.948 743.15 122.726H742.575C742.23 122.726 741.999 122.726 741.654 122.726C744.071 121.059 746.718 119.725 749.48 118.613C749.941 118.502 750.401 118.502 750.976 118.613C753.738 118.502 756.155 120.169 758.687 121.948ZM760.529 106.72C763.866 101.051 767.779 94.6035 769.275 87.7119C770.196 92.3804 769.736 97.2713 767.894 101.495C765.708 106.386 761.795 110.499 756.846 112.944L760.529 106.72ZM801.385 109.276C800.464 112.055 798.853 114.278 796.896 115.39C793.904 117.057 790.106 116.724 786.193 116.168L785.157 116.057L778.482 115.167C778.482 115.056 778.597 114.945 778.712 114.945C779.173 114.389 780.094 114.278 780.899 114.167C782.28 113.945 783.776 113.945 785.272 113.834C785.503 113.834 785.733 113.834 785.963 113.834C788.495 113.722 791.027 113.611 793.559 112.944C796.896 112.055 800.004 109.943 802.075 107.275C801.845 107.831 801.615 108.609 801.385 109.276Z" fill="#A1C5CB"/>
<path d="M93.3663 87.6013C94.1719 87.6013 94.9775 87.2678 95.3228 86.4896C95.7832 85.7114 95.7832 84.822 95.3228 84.0438C94.8624 83.3768 94.1719 82.9321 93.3663 82.9321C91.8701 82.9321 91.0645 84.0438 91.0645 85.2667C91.0645 86.3784 91.8701 87.6013 93.3663 87.6013Z" fill="#A1C5CB"/>
<path d="M148.263 144.403C147.457 144.18 146.652 144.403 146.076 144.958L145.616 145.403C145.04 145.959 144.81 146.737 144.925 147.515C145.155 148.292 145.846 149.07 146.767 149.293C146.997 149.293 147.112 149.404 147.342 149.404C147.918 149.404 148.493 149.182 148.953 148.737L149.414 148.292C149.989 147.737 150.219 146.959 150.104 146.181C149.874 145.403 149.068 144.625 148.263 144.403Z" fill="#A1C5CB"/>
<path d="M263.697 52.8084C264.042 52.8084 264.387 52.8084 264.732 52.8084C267.034 52.8084 267.034 49.3625 264.732 49.3625C264.387 49.3625 264.042 49.3625 263.697 49.3625C261.395 49.3625 261.395 52.8084 263.697 52.8084Z" fill="#A1C5CB"/>
<path d="M322.506 127.062C322.506 127.395 322.506 127.728 322.506 128.062C322.506 130.284 326.074 130.284 326.074 128.062C326.074 127.728 326.074 127.395 326.074 127.062C326.074 124.839 322.506 124.839 322.506 127.062Z" fill="#A1C5CB"/>
<path d="M439.664 114.168C437.363 114.168 437.363 117.613 439.664 117.613C441.851 117.613 441.966 114.168 439.664 114.168Z" fill="#A1C5CB"/>
<path d="M530.815 51.141C530.815 50.8075 530.815 50.474 530.815 50.1405C530.815 47.9174 527.247 47.9174 527.247 50.1405C527.247 50.474 527.247 50.8075 527.247 51.141C527.247 53.3641 530.815 53.3641 530.815 51.141Z" fill="#A1C5CB"/>
<path d="M616.095 61.5915C618.397 61.5915 618.397 58.1443 616.095 58.1443C613.793 58.1443 613.793 61.5915 616.095 61.5915Z" fill="#A1C5CB"/>
<path d="M695.389 73.1511C693.088 73.1511 693.088 76.5956 695.389 76.5956C697.691 76.5956 697.691 73.1511 695.389 73.1511Z" fill="#A1C5CB"/>
<path d="M652.808 121.281C650.506 121.281 650.506 124.727 652.808 124.727C655.11 124.727 655.11 121.281 652.808 121.281Z" fill="#A1C5CB"/>
<path d="M533.231 102.274C535.533 102.274 535.533 98.8276 533.231 98.8276C530.929 98.8276 530.929 102.274 533.231 102.274Z" fill="#A1C5CB"/>
<path d="M753.279 66.814C753.624 66.4805 753.97 66.147 754.315 65.8135C755.926 64.2572 753.394 61.8115 751.783 63.3678C751.438 63.7013 751.092 64.0348 750.747 64.3683C749.136 65.9247 751.668 68.3704 753.279 66.814Z" fill="#A1C5CB"/>
<path d="M444.384 66.4807C441.276 63.146 442.082 61.701 443.118 59.589C444.038 57.9216 445.189 55.5873 443.578 52.5861C441.506 48.8067 437.363 46.5836 426.66 46.917C426.315 47.3617 425.97 47.8063 425.624 48.2509C430.343 42.8042 428.847 36.3571 428.847 36.2459C428.847 36.1348 428.732 35.9125 428.617 35.8013C428.502 35.6901 428.502 35.579 428.386 35.579C428.271 35.4678 420.445 28.5761 410.088 34.5786C408.706 35.3567 407.671 35.9125 406.75 36.2459C413.885 21.6843 413.77 15.6818 410.778 11.7913C408.706 9.12354 406.29 9.34585 404.448 9.45701C402.377 9.67932 401.111 9.79048 399.384 5.78882C397.313 1.12021 394.666 0.119792 392.709 0.00863486C388.566 -0.102522 384.883 4.0103 383.042 7.45618C382.121 9.23469 381.431 10.4574 380.855 11.1244C380.395 10.3463 379.704 9.23469 378.669 7.45618C376.827 3.89914 373.029 -0.21368 369.001 0.00863486C367.045 0.119792 364.283 1.12021 362.326 5.78882C360.6 9.67932 359.219 9.56817 357.262 9.45701C355.421 9.34585 353.004 9.12354 350.932 11.7913C348.285 15.3483 347.94 20.5727 353.234 32.4666C353.349 32.5777 353.579 32.6889 353.695 32.8C355.766 34.1339 357.262 34.8009 358.413 35.1344C351.968 22.0178 351.738 16.6822 353.81 13.7921C354.385 13.014 354.845 12.7917 355.766 12.7917C356.111 12.7917 356.457 12.7917 356.917 12.9029C359.909 13.1252 363.132 12.9029 365.664 7.23386C366.354 5.5665 367.62 3.67683 369.231 3.56567C371.188 3.45451 373.835 5.89997 375.561 9.2347C375.561 9.34585 375.676 9.34585 375.676 9.45701C376.137 11.3467 376.367 13.014 376.367 14.5702C376.367 15.3483 376.482 16.1264 376.597 16.9046C376.712 17.905 376.827 18.7942 376.597 19.6835C376.482 20.3504 376.137 20.9062 375.676 21.5732L375.446 21.9066C372.684 26.7976 371.878 32.6889 373.029 38.1356C373.259 38.1356 373.49 38.2468 373.72 38.2468C373.95 38.2468 374.18 38.3579 374.295 38.3579C373.029 33.0224 373.72 27.131 376.367 22.3513L376.597 22.0178C376.942 21.3508 377.403 20.6839 377.633 19.7946C377.863 18.6831 377.748 17.5715 377.633 16.5711C377.518 15.793 377.518 15.126 377.403 14.3479C377.403 13.681 377.288 13.1252 377.288 12.4583C379.129 15.3483 379.935 15.5707 380.395 15.5707C380.625 15.5707 380.74 15.5707 380.97 15.5707C381.085 15.5707 381.085 15.5707 381.201 15.5707C381.661 18.6831 382.006 22.0178 380.97 25.019C380.74 25.7971 380.28 26.6864 379.935 27.4645C379.244 28.9095 378.669 30.3546 378.438 32.0219C378.208 33.8005 378.669 35.579 379.129 37.2463C379.244 37.5798 379.359 38.0244 379.359 38.3579C379.589 39.2472 379.819 40.4699 379.704 41.5815C380.05 42.0261 380.395 42.5819 380.625 43.2488C381.085 41.4703 380.855 39.4695 380.51 38.0244C380.395 37.5798 380.28 37.2463 380.28 36.8017C379.819 35.1344 379.474 33.5782 379.589 32.0219C379.704 30.5769 380.395 29.243 380.97 27.9091C381.316 27.131 381.776 26.2418 382.006 25.3525C383.157 21.9066 382.812 18.2384 382.236 14.9037C383.042 14.1256 384.193 12.5694 386.034 9.12354C387.53 6.3446 389.717 4.23261 391.443 3.67683C391.789 6.12229 391.558 8.79007 391.443 11.3467C391.098 15.3483 390.868 19.5723 392.594 23.3517C392.709 23.6851 392.939 24.0186 393.055 24.2409C393.515 25.019 393.86 25.7971 394.09 26.5752C394.551 28.7984 392.824 30.9104 391.098 32.9112C390.753 33.3558 390.292 33.8005 389.947 34.2451C388.681 35.8013 387.761 37.5798 387.07 39.4695C387.185 39.4695 387.3 39.4695 387.3 39.3583C384.998 39.9141 382.927 41.1369 381.316 45.1385C379.589 39.4695 376.482 38.8025 373.605 38.2468C371.878 37.9133 370.037 37.5798 368.196 36.0236C365.434 33.6893 363.707 34.2451 362.096 34.8009C360.37 35.3567 358.528 36.0236 353.349 32.6889C343.337 26.0195 335.05 32.5777 335.05 32.6889C334.935 32.8001 334.82 32.9112 334.82 33.0224C334.705 33.1335 334.705 33.2447 334.705 33.3558C334.705 33.467 331.713 43.36 341.956 49.5848C344.488 51.141 345.869 52.3637 346.559 53.4753C322.391 51.9191 315.601 54.8092 313.184 60.3671C311.803 63.4795 313.184 65.7026 314.22 67.37C315.486 69.3708 316.406 70.8159 313.644 74.3729C310.537 78.3746 310.882 81.487 311.803 83.2655C313.759 87.2672 319.398 88.9345 323.542 89.1568C326.074 89.268 327.685 89.4903 328.605 89.7126C328.26 90.4907 327.455 91.8246 326.074 93.9366C323.772 97.3825 321.93 102.829 324.232 106.609C325.268 108.387 327.57 110.499 332.864 110.388C337.467 110.277 338.158 111.833 339.078 114.056C339.884 115.835 340.92 118.169 344.257 118.947C344.948 119.058 345.638 119.169 346.444 119.169C352.198 119.169 358.758 113.834 371.073 94.2701C371.763 95.3816 372.339 97.2713 372.454 100.606C372.569 103.941 373.49 106.497 374.641 108.498C372.109 116.39 369.692 124.949 367.735 133.731C365.779 142.624 364.283 151.85 363.822 161.187H366.239C367.16 143.29 371.763 126.061 376.482 110.721C377.978 112.278 379.704 113.389 380.97 113.945C382.236 114.612 383.157 114.834 383.272 114.834C383.387 114.834 383.502 114.834 383.617 114.834H383.732C383.848 114.834 383.963 114.834 384.078 114.723C384.193 114.723 394.205 111.277 393.515 99.4945C393.17 93.492 394.666 92.2692 396.047 91.1577C397.313 90.1572 398.694 89.0457 398.118 85.4886C397.658 83.2655 398.349 81.487 398.924 79.9308C399.845 77.263 400.881 74.5952 397.313 70.5936C398.003 70.7047 398.694 70.7047 399.269 70.7047C400.42 70.7047 401.456 70.4824 402.262 70.1489C411.008 72.8167 419.525 76.3737 427.466 80.7089C427.351 80.82 427.236 80.9312 427.236 81.0423C427.121 81.1535 427.12 81.3758 427.005 81.487C426.89 82.0428 426.545 83.2655 431.149 88.9345C433.22 91.4911 434.946 95.4928 433.796 97.9383C433.796 97.9383 433.796 97.9383 433.796 98.0494C431.494 97.1602 429.652 95.3816 427.811 93.6031C425.509 91.38 423.092 89.1568 419.87 88.4899C418.834 88.2676 417.798 88.2676 416.763 88.1564C415.382 88.0453 414.001 88.0453 412.85 87.6006C411.814 87.156 411.008 86.4891 410.088 85.711L400.305 77.7076C400.19 77.5965 399.96 77.4853 399.845 77.263C399.73 77.7076 399.615 78.1523 399.499 78.4857L409.282 86.4891C410.203 87.2672 411.123 88.0453 412.389 88.4899C413.77 89.0457 415.266 89.1568 416.763 89.1568C417.798 89.1568 418.719 89.268 419.64 89.3791C422.517 89.9349 424.704 92.0469 427.005 94.2701C428.847 96.0486 430.803 97.8271 433.105 98.8275C432.184 99.6056 430.688 100.161 428.617 100.273C421.596 100.717 420.445 104.274 419.64 106.831C419.064 108.609 418.719 109.499 417.223 109.943C413.08 111.166 407.325 108.276 394.781 92.4915C394.205 93.3808 393.745 94.6035 393.63 96.7155C404.218 109.721 410.318 113.723 415.266 113.723C416.302 113.723 417.223 113.5 418.144 113.278C421.481 112.278 422.287 109.721 422.862 107.942C423.553 105.719 424.128 104.163 428.732 103.83C433.911 103.496 436.097 101.162 436.903 99.2721C438.744 95.2705 436.443 90.0461 433.796 86.8225C432.184 84.8217 431.379 83.599 430.918 82.8209C431.839 82.5985 433.335 82.2651 435.867 81.8204C440.01 81.1535 445.535 79.0415 447.031 74.8175C447.721 73.3725 447.836 70.2601 444.384 66.4807ZM388.681 39.3583C389.372 37.9133 390.062 36.4682 391.098 35.1344C391.443 34.6897 391.789 34.2451 392.134 33.8005C393.86 31.6885 395.817 29.3542 395.356 26.5752C395.126 25.5748 394.666 24.6856 394.205 23.9075C394.09 23.574 393.86 23.3517 393.745 23.0182C392.019 19.5723 392.364 15.6818 392.594 11.569C392.824 9.01238 392.939 6.3446 392.594 3.67683C394.09 3.89914 395.241 5.67766 395.817 7.23386C398.349 13.014 401.456 13.2364 404.563 12.9029C406.175 12.7917 406.865 12.7917 407.671 13.7921C409.857 16.7934 409.512 22.3513 402.262 36.6906C401.801 36.5794 401.341 36.4682 400.996 36.2459C399.499 35.579 397.773 34.912 394.896 37.1352C393.055 38.5802 391.213 38.8026 389.372 39.0249C388.911 39.136 388.451 39.136 387.991 39.2472C388.336 39.4695 388.451 39.4695 388.681 39.3583ZM343.337 47.8063C335.396 43.0265 336.662 36.0236 337.007 34.4674C338.273 33.5782 344.488 29.6876 352.198 34.8009C358.413 38.9137 361.06 37.9133 363.132 37.2463C364.398 36.8017 365.088 36.5794 366.815 38.0244C369.116 39.9141 371.303 40.3587 373.259 40.8034C376.137 41.3592 377.978 41.6926 379.244 46.2501C379.935 48.6956 379.935 51.6968 379.819 54.698C378.438 51.4745 376.942 48.2509 375.216 45.1385C375.331 44.9162 375.446 44.6939 375.446 44.4716C375.446 43.8046 374.986 43.36 374.295 43.36C373.605 43.36 373.144 43.8046 373.144 44.4716C373.144 45.0274 373.605 45.472 374.065 45.5831C375.791 48.8067 377.403 52.0303 378.784 55.365C378.669 55.2538 378.669 55.1427 378.554 55.0315C377.288 53.1418 375.446 51.6968 373.375 50.8075C373.259 50.3629 372.799 50.1406 372.339 50.1406C371.648 50.1406 371.188 50.5852 371.188 51.2522C371.188 51.9191 371.648 52.3637 372.339 52.3637C372.684 52.3637 372.914 52.2526 373.144 52.0303C374.871 52.8084 376.482 54.1423 377.518 55.6985C378.554 57.3658 379.244 59.2555 379.244 61.1452C373.835 60.7005 368.311 60.7005 362.902 61.034C362.786 60.9229 362.556 60.9229 362.326 60.9229C361.636 60.9229 361.175 61.4786 361.175 62.0344C361.175 62.7014 361.751 63.146 362.326 63.146C362.902 63.146 363.362 62.7014 363.477 62.1456C368.196 61.8121 373.029 61.8121 377.748 62.1456C377.057 62.4791 376.367 62.8125 375.791 63.146C372.109 64.9245 368.311 66.8142 364.858 67.2588C360.024 67.9258 358.989 66.3696 357.262 64.0353C356.111 62.4791 354.845 60.5894 352.083 59.3667C350.012 58.3662 350.012 57.8105 349.897 56.4766C349.782 54.4757 349.667 51.6968 343.337 47.8063ZM316.636 76.596C320.895 71.1493 318.823 68.0369 317.442 65.7026C316.406 64.1464 315.946 63.3683 316.636 61.9233C318.363 57.9216 324.923 55.5873 347.595 57.2547C347.71 58.6997 348.17 60.2559 351.163 61.5898C353.349 62.5902 354.385 64.0353 355.421 65.4803C356.917 67.5923 358.528 69.8154 363.017 69.8154C363.707 69.8154 364.398 69.8154 365.203 69.7043C366.815 69.482 368.541 69.0373 370.152 68.3704C368.886 69.3708 367.735 70.3712 366.815 71.4828C366.124 72.3721 365.549 73.1502 365.203 73.9283C363.707 74.7064 362.326 75.3733 360.715 75.8179C357.147 76.8184 353.119 76.8184 349.206 75.5956C348.401 75.3733 347.48 75.0398 346.674 74.7064C344.488 73.9283 342.301 73.1502 339.884 73.039C336.086 73.039 332.979 75.151 329.871 77.1518C327.915 78.3746 325.958 79.7085 323.887 80.4866C321.01 81.487 317.787 81.5981 314.91 80.7089C314.91 79.4861 315.486 78.1523 316.636 76.596ZM324.002 85.9333C320.664 85.711 316.406 84.3771 315.255 82.0428C316.521 82.3762 317.787 82.5985 319.168 82.5985C321.01 82.5985 322.736 82.2651 324.462 81.7093C326.649 80.9312 328.721 79.4861 330.677 78.2634C333.669 76.2626 336.547 74.3729 339.999 74.3729C342.186 74.3729 344.257 75.151 346.329 75.9291C347.135 76.2626 348.055 76.5961 348.976 76.8184C353.119 78.0411 357.377 78.1523 361.175 77.0407C362.326 76.7072 363.477 76.2626 364.628 75.7068C364.283 76.7072 364.283 77.5965 364.398 78.3746C360.485 80.4866 356.572 82.7097 352.889 85.044L352.314 85.4886C350.127 86.8225 347.94 88.2676 345.523 89.0457C341.495 90.2684 337.007 89.7126 332.979 89.0457C332.979 88.8234 332.864 88.7122 332.864 88.4899C332.749 88.3787 332.749 88.1564 332.634 88.0453C332.058 87.2672 331.368 86.3779 324.002 85.9333ZM332.058 107.164C329.756 107.053 328.26 106.386 327.57 105.163C326.189 102.829 327.57 98.8275 329.296 96.0486C331.368 92.825 332.288 91.0465 332.634 89.9349C335.05 90.3796 337.467 90.713 339.999 90.713C341.956 90.713 343.797 90.4907 345.638 89.9349C348.285 89.1568 350.472 87.6006 352.774 86.2667L353.349 85.8221C356.917 83.4878 360.715 81.3758 364.513 79.375C364.743 80.1531 365.088 80.9312 365.434 81.7093C365.549 81.8204 365.549 81.9316 365.664 82.1539C364.052 83.4878 362.556 84.8217 361.06 86.2667C360.14 87.156 359.219 88.1564 358.298 89.0457C353.81 93.6031 349.206 98.1606 343.107 99.7168C342.301 99.9391 341.495 100.05 340.69 100.161C338.963 100.495 337.237 100.828 335.626 101.606C333.439 102.718 331.828 104.941 332.058 107.164ZM345.293 115.723C343.797 115.39 343.337 114.612 342.646 112.833C341.61 110.388 340.114 107.053 333.439 107.053H333.324C333.094 105.386 334.475 103.496 336.201 102.607C337.582 101.94 339.194 101.606 340.92 101.273C341.725 101.162 342.646 100.94 343.452 100.717C349.897 99.0498 354.615 94.2701 359.104 89.7126C360.024 88.8234 360.945 87.8229 361.866 86.9337C363.247 85.5998 364.628 84.3771 366.124 83.1543C366.584 84.2659 366.93 85.5998 366.699 87.156C366.469 90.0461 367.39 91.2688 368.426 92.0469C355.766 112.611 349.782 116.724 345.293 115.723ZM396.622 79.4861C395.932 81.2647 395.241 83.3766 395.817 86.2667C396.277 88.4899 395.702 88.8234 394.666 89.7126C393.055 91.0465 390.753 92.825 391.213 100.05C391.789 109.054 385.229 112.166 383.732 112.833C382.236 112.389 375.331 109.721 375.101 100.717C374.871 93.492 372.454 91.9358 370.728 90.713C369.577 89.9349 369.001 89.6015 369.231 87.3783C369.462 84.4882 368.541 82.4874 367.735 80.7089C366.584 78.1523 365.779 76.4849 368.771 72.8167C369.692 71.7051 370.958 70.5936 372.224 69.5931C371.648 71.9274 372.339 74.2617 372.914 76.1514C372.914 76.2626 373.029 76.4849 373.029 76.596C372.799 76.8184 372.684 77.0407 372.684 77.3742C372.684 78.0411 373.259 78.4857 373.835 78.4857C374.525 78.4857 374.986 77.9299 374.986 77.3742C374.986 76.9295 374.641 76.4849 374.18 76.3737C374.18 76.1514 374.065 76.0403 374.065 75.8179C373.375 73.4836 372.684 70.927 373.95 68.3704C375.331 67.4811 376.712 66.5919 378.093 65.7026C379.129 65.0357 380.28 64.3687 381.316 63.7018C381.776 64.591 382.466 65.3692 383.042 66.2584C383.387 66.703 383.732 67.1477 383.963 67.4811C386.034 70.5936 388.336 73.5948 390.753 76.3737C390.753 77.0407 391.328 77.4853 391.904 77.4853C392.594 77.4853 393.055 77.0407 393.055 76.3737C393.055 75.7068 392.594 75.2622 391.904 75.2622C391.789 75.2622 391.558 75.2622 391.443 75.3733C389.142 72.5944 386.955 69.7043 384.883 66.8142C384.653 66.3696 384.308 65.9249 383.963 65.4803L383.272 64.5911C383.732 64.8134 384.308 65.1468 384.768 65.3691C387.07 66.703 389.487 68.0369 391.904 69.0373C392.939 69.7043 393.975 70.4824 394.781 71.3717C398.118 75.151 397.543 76.9295 396.622 79.4861ZM396.737 68.4816C395.586 68.2592 394.321 67.8146 393.17 67.37C390.983 65.9249 388.451 64.7022 386.034 63.4795C387.415 63.5906 388.681 63.7018 389.947 63.7018C390.753 63.7018 391.558 63.7018 392.249 63.7018C393.63 63.7018 395.011 63.7018 396.277 63.5906C396.507 63.9241 396.852 64.2576 397.313 64.2576C398.003 64.2576 398.464 63.813 398.464 63.146C398.464 62.4791 398.003 62.0344 397.313 62.0344C396.968 62.0344 396.622 62.2567 396.392 62.4791C394.205 62.5902 392.019 62.5902 389.832 62.5902C387.53 62.5902 384.883 62.3679 382.466 61.5898C382.466 60.9229 382.466 60.1448 382.466 59.4778L382.582 59.3667C384.423 57.2547 386.955 55.365 389.602 54.2534C389.717 54.3646 389.947 54.3646 390.062 54.3646C390.753 54.3646 391.213 53.9199 391.213 53.253C391.213 52.5861 390.753 52.1414 390.062 52.1414C389.372 52.1414 388.911 52.5861 388.911 53.253C387.415 53.9199 386.034 54.6981 384.768 55.6985C387.185 51.6968 390.177 47.584 393.975 44.2493C394.09 44.2493 394.205 44.3604 394.321 44.3604C395.011 44.3604 395.471 43.8046 395.471 43.2488C395.471 42.5819 394.896 42.1373 394.321 42.1373C393.63 42.1373 393.17 42.5819 393.17 43.2488C393.17 43.36 393.17 43.36 393.17 43.4712C388.566 47.4728 385.229 52.4749 382.466 57.1435C382.466 53.3642 382.467 49.5848 383.502 46.5836C385.114 42.1373 386.955 41.915 389.832 41.4703C391.789 41.248 394.09 40.9145 396.507 39.0249C398.349 37.691 398.924 37.9133 400.19 38.4691C402.146 39.2472 404.793 40.3587 411.238 36.6906C419.179 32.0219 425.164 36.1348 426.43 37.1352C426.66 38.6914 427.466 45.6943 419.41 50.1406C412.85 53.6976 412.504 56.4766 412.274 58.4774C412.159 59.8113 412.044 60.4782 409.972 61.2563C407.21 62.3679 405.829 64.1464 404.563 65.5915C402.607 67.9258 401.456 69.3708 396.737 68.4816ZM443.693 74.1506C442.772 76.7072 438.744 78.3746 435.407 78.8192C431.609 79.375 429.652 79.9308 428.502 80.3754C420.676 76.0403 412.389 72.4832 403.758 69.8154C403.528 69.9266 403.297 70.1489 402.952 70.2601C404.448 69.482 405.369 68.3704 406.29 67.1477C407.441 65.8138 408.591 64.3687 410.778 63.4795C414.231 62.1456 414.461 60.3671 414.576 58.8109C414.806 57.1435 415.036 55.1427 420.445 52.2526C421.596 51.5856 422.517 51.0299 423.438 50.2518C423.323 50.3629 423.092 50.4741 422.977 50.5852C425.509 50.3629 427.696 50.2518 429.537 50.3629C437.133 50.4741 439.205 52.2526 440.24 54.2534C441.046 55.5873 440.586 56.4766 439.78 58.0328C438.514 60.4782 436.903 63.7018 441.622 68.815C442.657 69.8154 443.233 70.8159 443.578 71.8163L432.875 68.1481C430.573 67.37 428.041 66.4807 426.2 64.8134C425.624 64.2576 425.049 63.7018 424.589 63.0349C423.783 62.1456 422.977 61.1452 421.942 60.4782C419.755 59.0332 417.108 58.8109 414.691 58.8109C414.691 59.1443 414.576 59.589 414.461 59.9224C417.108 59.9224 419.41 60.1448 421.251 61.3675C422.172 62.0344 422.977 62.8125 423.668 63.7018C424.243 64.3687 424.819 64.9245 425.394 65.5915C427.466 67.37 430.113 68.3704 432.53 69.1485L443.808 73.039C443.808 73.4836 443.808 73.8171 443.693 74.1506Z" fill="#A1C5CB"/>
<path d="M371.878 56.254C371.878 56.254 361.52 48.4757 359.794 52.476C357.952 56.4763 371.878 56.254 371.878 56.254Z" fill="#A1C5CB"/>
<path d="M372.339 55.5877C372.339 55.5877 367.16 43.1381 364.053 46.3617C360.831 49.4741 372.339 55.5877 372.339 55.5877Z" fill="#A1C5CB"/>
<path d="M358.413 47.6958C358.413 47.6958 348.055 39.9142 346.328 43.9161C344.487 47.9181 358.413 47.6958 358.413 47.6958Z" fill="#A1C5CB"/>
<path d="M358.874 47.028C358.874 47.028 353.695 34.5792 350.587 37.8026C347.48 40.9148 358.874 47.028 358.874 47.028Z" fill="#A1C5CB"/>
<path d="M356.917 51.4735C356.342 51.14 355.536 51.2511 355.076 51.8071C354.731 52.363 354.846 53.1413 355.421 53.5861C355.997 54.0308 356.802 53.8084 357.263 53.2525C357.723 52.5854 357.493 51.8071 356.917 51.4735Z" fill="#A1C5CB"/>
<path d="M374.871 58.8104C375.447 59.1439 376.252 59.0327 376.713 58.477C377.058 57.9212 376.943 57.1431 376.368 56.6984C375.792 56.2538 374.986 56.4761 374.526 57.0319C374.066 57.6989 374.296 58.477 374.871 58.8104Z" fill="#A1C5CB"/>
<path d="M361.751 44.4717C362.326 44.8052 363.132 44.694 363.592 44.1383C363.938 43.5825 363.823 42.8045 363.247 42.3599C362.672 42.0265 361.866 42.1376 361.406 42.6934C360.945 43.2491 361.175 44.0271 361.751 44.4717Z" fill="#A1C5CB"/>
<path d="M345.753 37.6919C345.178 37.3586 344.372 37.4697 343.912 38.0251C343.566 38.5805 343.682 39.3581 344.257 39.8025C344.833 40.1357 345.638 40.0247 346.099 39.4692C346.559 38.8027 346.329 38.0251 345.753 37.6919Z" fill="#A1C5CB"/>
<path d="M399.614 48.8068C396.737 45.472 390.752 57.5884 390.752 57.5884C390.752 57.5884 402.491 52.1416 399.614 48.8068Z" fill="#A1C5CB"/>
<path d="M403.412 55.2532C401.916 51.1404 391.098 58.3656 391.098 58.3656C391.098 58.3656 405.023 59.366 403.412 55.2532Z" fill="#A1C5CB"/>
<path d="M413.425 41.0255C410.548 37.6907 404.563 49.8071 404.563 49.8071C404.563 49.8071 416.417 44.3603 413.425 41.0255Z" fill="#A1C5CB"/>
<path d="M417.338 47.4729C415.842 43.3601 405.023 50.5853 405.023 50.5853C405.023 50.5853 418.834 51.5858 417.338 47.4729Z" fill="#A1C5CB"/>
<path d="M401.801 46.9169C402.376 46.5835 402.607 45.8053 402.261 45.2495C401.916 44.6937 401.11 44.4714 400.535 44.8049C399.959 45.1384 399.729 45.9165 400.075 46.4723C400.42 47.0281 401.225 47.2504 401.801 46.9169Z" fill="#A1C5CB"/>
<path d="M386.955 59.1452C386.38 59.4785 386.149 60.2564 386.495 60.812C386.84 61.3677 387.646 61.5899 388.221 61.2565C388.797 60.9232 389.027 60.1453 388.681 59.5897C388.451 58.9229 387.646 58.8118 386.955 59.1452Z" fill="#A1C5CB"/>
<path d="M406.174 54.1421C405.599 54.4758 405.368 55.2544 405.714 55.8105C406.059 56.3666 406.865 56.5891 407.44 56.2554C408.016 55.9217 408.246 55.1431 407.901 54.587C407.555 54.0309 406.75 53.8085 406.174 54.1421Z" fill="#A1C5CB"/>
<path d="M419.524 43.3606C420.1 43.0273 420.33 42.2493 419.984 41.6937C419.639 41.138 418.834 40.9158 418.258 41.2492C417.683 41.5826 417.452 42.3605 417.798 42.9161C418.143 43.4718 418.949 43.694 419.524 43.3606Z" fill="#A1C5CB"/>
<path d="M385.459 84.488C389.832 83.4876 381.431 72.8164 381.431 72.8164C381.431 72.8164 380.97 85.3773 385.459 84.488Z" fill="#A1C5CB"/>
<path d="M377.749 84.8219C382.237 85.3777 380.626 72.8164 380.626 72.8164C380.626 72.8164 373.26 84.1549 377.749 84.8219Z" fill="#A1C5CB"/>
<path d="M386.149 99.9394C390.523 98.939 382.121 88.2681 382.121 88.2681C382.121 88.2681 381.776 100.94 386.149 99.9394Z" fill="#A1C5CB"/>
<path d="M381.315 88.3794C381.315 88.3794 373.95 99.7167 378.438 100.384C382.926 100.828 381.315 88.3794 381.315 88.3794Z" fill="#A1C5CB"/>
<path d="M387.415 85.9341C386.725 85.9341 386.149 86.6008 386.149 87.2676C386.149 87.9344 386.84 88.49 387.531 88.49C388.221 88.49 388.796 87.8232 388.796 87.1565C388.796 86.4897 388.106 85.9341 387.415 85.9341Z" fill="#A1C5CB"/>
<path d="M380.624 70.2611C381.315 70.2611 381.89 69.594 381.89 68.9269C381.89 68.2598 381.2 67.7039 380.509 67.7039C379.819 67.7039 379.243 68.371 379.243 69.0381C379.243 69.7052 379.819 70.2611 380.624 70.2611Z" fill="#A1C5CB"/>
<path d="M377.518 87.5999C377.518 86.933 376.828 86.3772 376.137 86.3772C375.447 86.3772 374.871 87.0441 374.871 87.7111C374.871 88.378 375.562 88.9338 376.252 88.9338C376.943 88.9338 377.518 88.378 377.518 87.5999Z" fill="#A1C5CB"/>
<path d="M382.466 102.719C381.776 102.719 381.2 103.386 381.2 104.052C381.2 104.719 381.891 105.275 382.581 105.275C383.272 105.275 383.847 104.608 383.847 103.941C383.732 103.274 383.157 102.719 382.466 102.719Z" fill="#A1C5CB"/>
<path d="M541.403 120.835C541.403 120.613 541.288 120.391 541.057 120.168C540.827 120.057 540.597 119.946 540.367 119.946H540.252C539.446 119.39 538.525 119.279 537.835 119.279C534.497 119.168 531.16 120.057 528.398 121.725C527.592 122.169 526.786 122.725 526.211 123.17C524.83 124.17 523.564 124.948 522.183 125.504C521.608 125.726 521.032 125.837 520.457 125.949C519.996 126.06 519.421 126.171 518.961 126.282H518.845C519.306 125.837 519.881 125.504 520.342 125.059C521.723 123.948 523.104 122.836 524.255 121.502C527.937 117.278 528.398 110.72 525.29 106.052C524.6 105.051 523.794 104.162 522.989 103.273C521.377 101.717 519.651 100.494 517.925 99.3823C515.393 97.7149 512.861 95.9364 510.444 94.2691C509.638 93.7133 508.718 93.2687 507.682 93.3799C507.452 88.3778 505.15 83.3758 501.122 79.3742C498.935 77.151 495.368 74.5944 490.879 74.3721C489.268 74.3721 487.772 74.7056 486.621 75.3725C486.045 75.706 485.585 76.2618 485.125 76.5953C484.895 76.8176 484.664 77.0399 484.549 77.151C483.744 77.9291 482.708 78.4849 481.672 79.0407C480.291 79.9299 478.795 80.708 477.759 82.0419C477.414 81.5973 477.184 81.1527 476.953 80.708C476.723 80.1523 476.378 79.7076 476.148 79.1519C474.652 76.1506 473.041 73.1494 470.048 71.5932C469.703 71.4821 469.243 71.2598 468.782 71.2598C468.207 71.2598 467.746 71.5932 467.516 71.9267C465.215 73.9275 463.603 76.9287 462.913 80.4857C462.337 83.5981 462.568 86.7105 462.798 89.934C463.258 95.0472 463.833 100.494 466.25 105.385C467.516 108.052 469.243 110.387 470.969 112.721C471.084 112.832 471.084 112.943 471.199 112.943L472.81 115.5C473.156 116.167 473.501 116.834 474.076 117.39C474.537 118.168 474.997 119.057 475.457 119.835C475.688 120.28 476.033 120.724 476.263 121.169C476.723 122.058 477.299 122.947 477.759 123.725C478.219 124.392 478.565 125.171 479.14 125.837C479.255 126.06 479.37 126.282 479.601 126.504C476.033 129.283 471.314 130.395 466.596 131.506C460.726 132.84 454.742 134.285 450.713 138.843C445.995 144.289 446.225 151.848 446.916 159.184C446.916 159.295 447.031 159.518 447.146 159.629C447.261 159.74 447.376 159.74 447.491 159.74L448.642 159.629C448.987 159.629 449.217 159.295 449.217 158.962C448.642 152.07 448.412 145.067 452.555 140.288C456.008 136.286 461.417 135.063 467.171 133.73C472.005 132.618 477.069 131.395 480.982 128.394C484.089 132.285 487.426 134.952 491.109 136.175C495.022 138.843 499.165 141.288 503.539 143.289C503.999 143.511 504.575 143.845 505.265 143.845C505.841 143.956 506.416 143.845 506.876 143.734H507.222C508.718 143.511 510.099 143.734 511.71 143.956C512.401 144.067 512.976 144.178 513.666 144.178C516.429 144.512 518.615 144.067 520.226 142.956C521.492 143.511 523.104 143.734 524.715 143.4C525.06 143.289 525.405 143.289 525.751 143.178C526.556 142.956 527.477 142.622 528.283 142.066C530.699 140.621 532.541 138.398 534.152 136.397L540.252 128.95C540.597 128.505 540.942 128.061 541.172 127.505C541.403 126.949 541.403 126.393 541.518 125.837L541.748 123.059C541.518 122.836 541.518 121.836 541.403 120.835ZM523.449 111.054C523.909 110.276 524.139 109.497 524.255 108.497C526.096 112.388 525.521 117.278 522.643 120.502C521.608 121.725 520.226 122.725 518.961 123.725C516.083 125.949 513.206 128.172 509.984 129.95H509.869C508.718 130.173 507.452 129.95 506.186 129.839C506.531 129.728 506.991 129.506 507.337 129.394C508.142 129.061 509.063 128.839 509.753 128.505C512.746 127.171 514.817 125.504 515.738 123.392C516.198 122.503 516.314 121.502 516.429 120.502C516.544 119.613 516.659 118.835 517.004 118.057C517.579 116.611 518.845 115.5 520.111 114.388C521.377 113.61 522.643 112.499 523.449 111.054ZM507.452 95.7141C507.567 95.603 507.682 95.4918 507.912 95.4918L507.797 95.0472L507.912 95.4918C508.257 95.3807 508.833 95.8253 509.178 96.0476C511.71 97.7149 514.242 99.4934 516.659 101.161C518.27 102.272 519.881 103.384 521.377 104.829C522.413 107.052 522.528 108.719 521.723 110.164C521.032 111.276 519.996 112.276 518.845 113.277C517.464 114.5 515.968 115.833 515.278 117.612C514.932 118.501 514.702 119.502 514.587 120.391C514.472 121.28 514.357 122.058 514.012 122.836C513.321 124.504 511.71 125.837 509.063 126.949C508.257 127.282 507.567 127.505 506.761 127.838C505.38 128.283 503.999 128.839 502.733 129.506C500.546 129.172 498.245 129.061 496.058 128.95C495.022 128.061 494.217 127.06 493.641 125.949C493.756 126.06 493.756 126.171 493.871 126.282C494.332 126.393 494.907 126.504 495.368 126.616C497.094 127.06 498.935 127.505 500.777 127.616C500.892 127.616 500.892 127.616 501.007 127.616C501.007 127.616 501.007 127.616 501.122 127.616C501.352 127.505 501.582 127.282 501.582 127.06C501.582 126.838 501.582 126.727 501.467 126.616C501.352 126.504 501.237 126.393 501.007 126.393C499.28 126.171 497.554 125.726 495.828 125.393C495.137 125.282 494.562 125.059 493.871 124.948C494.562 124.837 495.368 124.726 496.058 124.615C497.094 124.392 498.13 124.281 499.05 124.17C500.316 124.059 501.582 123.948 502.848 124.059H502.963H503.078C503.309 123.948 503.539 123.725 503.539 123.392C503.539 123.059 503.309 122.725 502.848 122.725C501.467 122.725 500.201 122.725 498.82 122.836C498.245 122.947 497.669 122.947 497.094 123.059C499.396 121.836 501.582 120.28 503.539 118.501C503.654 118.39 503.769 118.168 503.769 118.057C503.769 117.834 503.654 117.723 503.539 117.612C503.424 117.501 503.194 117.39 503.078 117.39C502.848 117.39 502.733 117.501 502.618 117.612C499.856 120.28 496.288 122.28 492.605 123.503V123.059C495.252 121.947 497.899 120.724 500.086 118.723C500.201 118.612 500.316 118.501 500.316 118.279C500.316 118.057 500.201 117.945 500.086 117.834C499.971 117.723 499.741 117.612 499.626 117.612C499.396 117.612 499.281 117.723 499.165 117.834C497.324 119.502 495.137 120.613 492.721 121.614V121.391C493.411 120.835 494.102 120.168 494.792 119.613C496.864 117.945 499.05 116.167 500.431 113.721C500.546 113.61 500.546 113.388 500.546 113.277C500.546 113.054 500.431 112.943 500.201 112.832C499.856 112.61 499.511 112.721 499.28 113.054C498.015 115.278 496.058 116.834 493.871 118.612C493.526 118.946 493.066 119.279 492.721 119.613C492.721 119.502 492.721 119.39 492.721 119.279C493.181 118.723 493.526 118.168 493.986 117.612L494.102 117.501C496.173 114.833 498.36 111.943 500.201 109.498C500.431 109.164 500.316 108.831 500.086 108.608C499.741 108.386 499.396 108.497 499.165 108.719C497.324 111.165 495.252 113.944 493.181 116.5L492.951 116.723C492.951 116.834 492.836 116.834 492.836 116.834C492.951 115.278 493.181 113.721 493.641 112.165C494.677 108.942 496.749 106.163 499.626 104.162L499.971 103.94C500.431 103.606 500.892 103.273 501.352 102.939C501.812 102.495 502.273 101.939 502.618 101.383L502.733 101.161C503.424 100.16 504.114 99.2711 504.92 98.3819C505.725 97.4926 506.531 96.6034 507.337 95.8253C507.222 95.9364 507.452 95.8253 507.452 95.7141ZM499.05 81.2638C502.963 85.0431 505.15 90.0452 505.15 94.7137C505.15 94.936 505.15 95.0472 505.15 95.2695C503.654 96.8257 502.158 98.3819 501.007 100.16L500.892 100.383C500.546 100.827 500.316 101.272 499.856 101.605C499.511 101.939 499.165 102.161 498.82 102.384L498.475 102.606C496.979 103.717 495.598 104.94 494.447 106.496C494.677 104.829 494.907 103.273 495.137 101.605C495.137 101.383 495.137 101.272 495.022 101.161C494.907 101.05 494.792 100.938 494.562 100.938C494.332 100.938 494.217 100.938 494.102 101.05C493.986 101.161 493.871 101.272 493.871 101.494C493.641 104.384 493.181 107.274 492.49 110.164C492.26 110.609 492.145 111.165 491.915 111.721V111.832C492.145 109.72 492.26 107.608 492.26 105.496C492.26 105.274 492.145 105.162 492.03 105.051C491.915 104.94 491.685 104.829 491.57 104.829C491.455 104.829 491.224 104.94 491.109 105.051C490.994 105.162 490.879 105.385 490.879 105.496C490.879 109.053 490.534 112.499 489.843 115.833V113.166L489.728 104.495C489.728 104.273 489.613 104.162 489.498 104.051C489.383 103.94 489.153 103.829 489.038 103.829C488.692 103.829 488.347 104.162 488.347 104.495L488.462 113.166C488.462 115.278 488.462 117.501 488.347 119.613L488.232 119.502C488.117 115.055 487.772 110.498 487.196 106.163C487.196 105.941 487.081 105.829 486.966 105.718C486.851 105.051 486.736 104.495 486.506 103.829C486.276 103.162 486.045 102.495 485.815 101.828C485.47 100.938 485.24 99.9381 485.01 99.0488C484.779 98.0484 484.664 97.048 484.549 95.9364C484.319 93.9356 484.089 91.9348 483.168 90.1563C483.744 88.9336 484.319 87.822 485.01 86.7105C486.276 84.4874 487.657 82.1531 489.613 80.4857C491.109 79.1519 493.066 78.3738 494.907 78.1514C496.403 79.0407 497.899 80.2634 499.05 81.2638ZM486.736 117.612C486.736 117.612 486.621 117.501 486.736 117.612C486.506 117.056 486.391 116.5 486.276 116.056C486.391 115.722 486.506 115.389 486.506 114.944C486.621 115.833 486.621 116.723 486.736 117.612ZM482.132 81.4861C483.283 80.8192 484.319 80.1523 485.355 79.3742C485.585 79.1519 485.815 78.9295 486.045 78.7072C486.391 78.3738 486.851 77.9291 487.196 77.7068C487.657 77.3734 488.232 77.151 488.923 77.0399C489.383 76.9287 489.728 76.9287 490.189 76.9287C490.534 76.9287 490.879 77.0399 491.224 77.0399C490.073 77.4845 489.038 78.1515 488.002 78.9295C485.815 80.8192 484.319 83.3758 483.053 85.7101C482.593 86.4882 482.132 87.2663 481.672 88.1555C481.212 87.4886 480.751 86.9328 480.291 86.2659C479.716 85.4878 479.14 84.8208 478.68 84.0427C479.485 83.0423 480.751 82.2642 482.132 81.4861ZM472.465 106.274C471.775 107.608 471.429 109.164 471.429 110.72C470.048 108.831 468.782 106.941 467.862 104.94C465.675 100.272 464.984 95.0472 464.639 90.0452C464.409 87.0439 464.179 84.0427 464.639 81.1527C465.215 78.0403 466.596 75.3725 468.552 73.7052C468.667 73.594 468.782 73.594 468.782 73.4829C468.782 73.4829 468.897 73.4829 469.012 73.594C471.544 74.9279 472.925 77.5957 474.306 80.2634C474.652 80.8192 474.882 81.375 475.112 81.9308C475.572 82.7089 476.033 83.4869 476.608 84.3762C476.953 84.932 477.414 85.4878 477.759 86.0435C478.104 86.4882 478.45 86.9328 478.68 87.2663C479.37 88.1555 480.061 89.0448 480.636 89.934L480.751 90.0452C481.327 90.8233 481.557 91.7125 481.902 92.7129C482.132 93.7133 482.248 94.8249 482.478 95.9364C482.593 97.048 482.708 98.1596 482.938 99.16C483.168 100.16 483.513 101.161 483.859 102.161C484.089 102.828 484.319 103.495 484.549 104.162C485.24 106.385 485.355 108.831 485.24 111.165C485.01 110.164 484.779 109.275 484.549 108.275C484.549 108.052 484.434 107.941 484.204 107.83C484.089 107.719 483.859 107.719 483.744 107.719C483.398 107.83 483.168 108.164 483.168 108.497C483.513 110.164 483.974 111.943 484.319 113.61C484.434 113.721 484.549 113.944 484.664 114.055C482.363 110.72 479.716 107.608 476.723 104.829C476.378 104.495 476.033 104.162 475.457 104.051C474.076 104.162 473.041 105.162 472.465 106.274ZM491.455 135.063C488.808 134.174 486.391 132.507 483.974 129.95C483.283 129.172 482.593 128.394 481.902 127.616C481.902 127.505 481.902 127.282 481.787 127.171L481.327 126.727C481.097 126.393 480.866 126.06 480.636 125.726C480.521 125.615 480.521 125.504 480.406 125.393C479.946 124.615 479.485 123.837 479.025 123.17C478.565 122.392 478.104 121.614 477.759 120.947C477.529 120.502 477.184 120.057 476.953 119.502C476.033 117.834 475.112 116.167 474.076 114.5C474.076 114.388 473.961 114.277 473.961 114.166C473.156 111.832 473.271 109.164 474.306 107.052C474.537 106.496 474.882 106.274 474.997 106.274C475.112 106.274 475.342 106.496 475.342 106.607C478.68 109.497 481.442 112.832 483.744 116.611C483.859 116.723 483.859 116.834 483.974 116.945C484.089 117.167 484.204 117.278 484.319 117.501C484.664 117.945 484.895 118.501 485.24 119.057C486.045 120.28 486.966 121.391 488.117 122.392C488.347 122.614 488.692 122.836 488.923 122.947C489.383 123.281 489.843 123.614 490.189 123.948C490.419 124.17 490.534 124.392 490.649 124.615C490.879 125.059 491.224 125.504 491.455 125.949C491.57 126.171 491.685 126.504 491.915 126.727C492.145 127.171 492.49 127.616 492.721 128.061C492.951 128.283 493.181 128.616 493.411 128.839C496.058 131.951 499.971 133.952 503.999 134.285C505.15 134.396 506.416 134.285 507.567 134.285C509.523 134.174 511.48 134.063 513.206 134.73C513.321 134.73 513.321 134.73 513.436 134.841C512.976 135.397 512.401 135.842 511.71 136.175C509.984 137.175 507.912 137.398 506.646 137.509C504.459 137.62 502.273 137.287 500.086 136.842L498.59 136.62C498.13 136.508 497.669 136.508 497.324 136.397C495.483 136.175 493.526 135.842 491.685 135.286C491.57 135.063 491.455 135.063 491.455 135.063ZM532.311 136.064C530.699 138.065 529.088 140.065 526.902 141.288C524.6 142.622 522.068 142.844 520.226 141.733C519.881 141.51 519.421 141.622 519.076 141.844C517.925 142.844 515.968 143.178 513.436 142.956C512.861 142.844 512.17 142.844 511.595 142.733C509.984 142.511 508.257 142.289 506.531 142.511L506.071 142.622C505.61 142.733 505.265 142.733 504.92 142.733C504.575 142.733 504.229 142.511 503.769 142.289C501.007 141.066 498.36 139.621 495.828 138.065C496.173 138.065 496.403 138.176 496.749 138.176L498.015 138.398C498.475 138.509 499.05 138.509 499.511 138.62C501.812 138.954 504.114 139.399 506.531 139.287C507.106 139.287 507.682 139.176 508.372 139.065C508.833 138.954 509.408 138.843 509.869 138.732C511.135 138.398 512.4 137.842 513.666 136.842C513.897 136.953 514.012 136.953 514.242 136.953C514.817 137.064 515.393 136.953 515.853 136.953C515.968 136.953 516.198 136.953 516.313 136.842C517.119 136.731 517.925 136.842 518.73 136.953C519.651 137.064 520.572 137.175 521.492 137.064C521.723 137.064 521.953 137.064 522.183 136.953C523.334 136.731 524.255 136.397 525.29 136.064C525.981 135.842 526.556 135.619 527.247 135.397C527.822 135.286 528.513 135.175 529.203 135.063C529.894 134.952 530.584 134.841 531.16 134.619C531.275 134.619 531.39 134.508 531.505 134.508C532.311 134.285 533.116 133.952 533.807 133.618L532.311 136.064ZM514.472 136.397C514.702 136.175 514.817 136.064 515.048 135.842L515.163 135.73C515.163 135.842 515.048 135.842 515.048 135.842C514.817 136.064 514.587 136.175 514.472 136.397ZM539.446 123.503V123.725C538.756 128.061 535.418 131.951 531.045 133.063C530.469 133.174 529.779 133.285 529.203 133.396C528.513 133.507 527.822 133.618 527.132 133.841C526.441 134.063 525.636 134.285 525.06 134.508C523.909 134.952 522.873 135.286 521.723 135.397C520.917 135.508 520.111 135.397 519.306 135.286C518.385 135.175 517.464 135.063 516.544 135.175C516.313 135.175 516.083 135.175 515.968 135.286C515.853 135.286 515.738 135.286 515.508 135.286C515.623 135.063 515.623 134.841 515.623 134.619C515.623 134.285 515.393 133.507 514.242 133.063C512.055 132.285 509.753 132.285 507.567 132.396C506.416 132.507 505.265 132.507 504.229 132.396C502.503 132.285 500.892 131.84 499.28 131.062C499.626 131.062 499.971 131.062 500.316 131.173C501.237 131.284 502.273 131.395 503.194 131.506C503.654 131.618 504.114 131.618 504.459 131.729L504.92 131.84C505.38 131.951 505.841 131.951 506.301 132.062C507.567 132.285 508.948 132.396 510.214 132.173C510.444 132.173 510.559 132.062 510.789 132.062C512.631 131.729 514.242 130.839 515.738 130.061C516.889 129.394 518.155 128.839 519.421 128.394C519.881 128.283 520.342 128.172 520.802 128.061C521.492 127.949 522.068 127.838 522.758 127.616C524.485 127.06 525.866 126.06 527.362 125.059C528.052 124.615 528.743 124.059 529.433 123.614C530.584 122.947 531.85 122.392 533.231 122.058C533.807 121.947 534.382 121.725 535.073 121.725C535.878 121.614 536.684 121.502 537.49 121.502H537.835C538.295 121.502 538.986 121.614 539.331 121.836C539.561 122.058 539.561 122.725 539.446 123.503Z" fill="#A1C5CB"/>
</svg>
