<svg width="16" height="16" viewBox="0 0 16 16" fill="none" xmlns="http://www.w3.org/2000/svg">
<path d="M13.6933 4.42C14.1533 5.04667 14.46 5.78 14.5933 6.54667C14.7333 7.38 14.6666 8.22667 14.3866 9.02667C14.1211 9.80812 13.6625 10.5098 13.0533 11.0667C12.6075 11.4923 12.0994 11.8475 11.5466 12.12C11.82 12.8333 11.46 13.6333 10.7466 13.9067C10.5866 13.9667 10.42 14 10.2533 14C9.89574 13.9985 9.55257 13.859 9.29542 13.6106C9.03828 13.3621 8.88705 13.024 8.8733 12.6667H6.82663C6.7533 13.4267 6.0733 14 5.3133 13.9133C4.60663 13.8467 4.0733 13.26 4.05996 12.5533C4.06663 12.4267 4.08663 12.2933 4.12663 12.1733C3.06774 11.8209 2.13885 11.1591 1.45996 10.2733C1.23996 9.98 1.30663 9.56 1.6133 9.33333C1.7333 9.24 1.87996 9.18667 2.0333 9.18667C2.5133 9.18667 2.69996 9.02 2.8133 8.76667C2.9733 8.28667 3.06663 7.78667 3.0733 7.28C3.0933 6.92667 3.1333 6.58 3.18663 6.23333C3.42069 5.07927 4.06487 4.04906 4.99996 3.33333C6.10663 2.46667 7.45996 2 8.85996 2C9.8133 2 10.7533 2.23333 11.6 2.66667C12.4278 3.07553 13.1456 3.67675 13.6933 4.42ZM11.1466 11.54C12.3333 11 13.2666 10.0267 13.7266 8.80667C14.8066 5.51333 12 2.7 8.85996 2.7C8.62663 2.7 8.38663 2.71333 8.1533 2.74667C6.23996 3 4.26663 4.33333 3.8733 6.33333C3.61996 7.66667 3.99996 9.86 2.0333 9.86C2.66663 10.6667 3.54663 11.2867 4.53996 11.58C5.10663 11.0733 5.97996 11.1267 6.4933 11.7C6.56663 11.78 6.62663 11.8667 6.66663 11.96H9.0333C9.37996 11.28 10.22 11 10.9 11.36C11 11.4133 11.0666 11.4733 11.1466 11.54ZM7.3133 6.87333C6.92663 6.89333 6.58663 6.6 6.56663 6.20667C6.54663 5.82 6.84663 5.48667 7.2333 5.46C7.61996 5.44 7.95996 5.74 7.97996 6.16667C7.98362 6.2548 7.96973 6.34277 7.93911 6.42549C7.90848 6.50821 7.86173 6.58402 7.80157 6.64852C7.74141 6.71302 7.66904 6.76493 7.58865 6.80124C7.50826 6.83754 7.42147 6.85752 7.3333 6.86L7.3133 6.87333ZM10.44 6.87333C10.0533 6.89333 9.7133 6.6 9.6933 6.20667C9.66663 5.82 9.9733 5.48667 10.36 5.46C10.7466 5.44 11.0866 5.74 11.1066 6.16667C11.12 6.53333 10.8333 6.84667 10.44 6.86V6.87333ZM6.4733 8.04667C6.4333 7.86 6.55996 7.66667 6.74663 7.63333C6.9333 7.6 7.11996 7.72 7.15996 7.90667C7.27344 8.2659 7.50524 8.57611 7.81758 8.78676C8.12991 8.9974 8.50438 9.09607 8.87996 9.06667C9.63996 9.10667 10.3333 8.64 10.5933 7.92C10.6866 7.74667 10.9 7.66667 11.0666 7.76667C11.1866 7.83333 11.26 7.94667 11.26 8.08C11.1333 8.55333 10.84 8.96667 10.44 9.25333C9.97996 9.57333 9.43996 9.75333 8.87996 9.76H8.80663C7.71996 9.80667 6.73996 9.09333 6.4533 8.04L6.4733 8.04667Z" fill="#3B6971"/>
</svg>
