<svg width="16" height="16" viewBox="0 0 16 16" fill="none" xmlns="http://www.w3.org/2000/svg">
<path d="M13.3333 2H2.66667C2.48986 2 2.32029 2.07024 2.19526 2.19526C2.07024 2.32029 2 2.48986 2 2.66667V13.3333C2 13.5101 2.07024 13.6797 2.19526 13.8047C2.32029 13.9298 2.48986 14 2.66667 14H8.41V9.36H6.85133V7.54333H8.41V6.21C8.41 4.66 9.35667 3.81533 10.7433 3.81533C11.2093 3.814 11.676 3.838 12.14 3.88667V5.5H11.1833C10.4313 5.5 10.2847 5.85867 10.2847 6.38333V7.54H12.0827L11.8493 9.35667H10.284V14H13.3333C13.5101 14 13.6797 13.9298 13.8047 13.8047C13.9298 13.6797 14 13.5101 14 13.3333V2.66667C14 2.48986 13.9298 2.32029 13.8047 2.19526C13.6797 2.07024 13.5101 2 13.3333 2Z" fill="#3B6971"/>
</svg>
