<svg width="16" height="16" viewBox="0 0 16 16" fill="none" xmlns="http://www.w3.org/2000/svg">
<path d="M7.99325 1.33325C4.31459 1.33325 1.33325 4.31525 1.33325 7.99325C1.33325 10.8146 3.08859 13.2266 5.56659 14.1973C5.50792 13.6706 5.45592 12.8599 5.58925 12.2853C5.71059 11.7653 6.37059 8.97459 6.37059 8.97459C6.37059 8.97459 6.17125 8.57525 6.17125 7.98525C6.17125 7.05992 6.70792 6.36859 7.37659 6.36859C7.94525 6.36859 8.21925 6.79525 8.21925 7.30659C8.21925 7.87859 7.85525 8.73259 7.66792 9.52459C7.51125 10.1873 8.00059 10.7279 8.65392 10.7279C9.83725 10.7279 10.7479 9.47992 10.7479 7.67792C10.7479 6.08325 9.60192 4.96859 7.96592 4.96859C6.07059 4.96859 4.95792 6.38992 4.95792 7.85859C4.95792 8.43059 5.17859 9.04459 5.45392 9.37859C5.47732 9.40374 5.49384 9.4345 5.5019 9.46789C5.50995 9.50129 5.50927 9.5362 5.49992 9.56925C5.44925 9.77925 5.33659 10.2319 5.31525 10.3246C5.28592 10.4466 5.21859 10.4726 5.09192 10.4139C4.26059 10.0266 3.74059 8.81059 3.74059 7.83325C3.74059 5.73259 5.26659 3.80325 8.14125 3.80325C10.4519 3.80325 12.2473 5.44925 12.2473 7.64992C12.2473 9.94592 10.7999 11.7919 8.79125 11.7919C8.11592 11.7919 7.48192 11.4419 7.26459 11.0279L6.84925 12.6106C6.69925 13.1893 6.29325 13.9146 6.02192 14.3573C6.66066 14.5545 7.32543 14.6545 7.99392 14.6539C11.6719 14.6539 14.6539 11.6719 14.6539 7.99392C14.6539 4.31592 11.6713 1.33325 7.99325 1.33325Z" fill="#3B6971"/>
</svg>
