<svg width="207" height="45" viewBox="0 0 207 45" fill="none" xmlns="http://www.w3.org/2000/svg">
<g clip-path="url(#clip0)">
<path d="M78.5618 12.1226L80.4698 13.7512C79.2731 15.1596 77.478 16.0515 75.443 16.0431C71.9063 16.029 69.0387 13.2403 69.0528 9.80815C69.0669 6.37598 71.9572 3.5958 75.4938 3.60992C77.5288 3.61838 79.3183 4.53852 80.5009 5.95824L78.5816 7.57272C77.8957 6.58766 76.7611 5.96107 75.4853 5.95542C73.3628 5.94695 71.6156 7.49087 71.6072 9.81944C71.5987 12.1141 73.3317 13.706 75.4542 13.7145C76.7272 13.7173 77.8675 13.102 78.5618 12.1226Z" fill="#3B6971"/>
<path d="M94.083 13.5113L88.6525 13.4887L87.5573 15.9499L84.9521 15.9387L90.7947 3.80469L92.0197 3.81033L97.7833 15.9923L95.1781 15.981L94.083 13.5113ZM89.5387 11.4424L93.2108 11.4565L91.3818 7.43161L89.5387 11.4424Z" fill="#3B6971"/>
<path d="M112.082 12.481C112.074 14.8265 110.188 16.1983 107.36 16.187C105.291 16.1785 104.241 15.9838 102.313 15.01L103.22 13.0992C104.82 13.881 105.94 14.0419 107.459 14.0475C108.785 14.0532 109.581 13.5734 109.584 12.6758C109.587 11.8488 108.78 11.4819 107.004 11.0613C104.507 10.4827 102.491 9.76579 102.503 7.36948C102.511 5.23002 104.224 3.71997 107.002 3.73126C108.848 3.73973 110.465 4.21109 111.653 4.73325L110.646 6.6949C109.579 6.2433 108.08 5.87355 106.942 5.87073C105.7 5.86508 105.009 6.41547 105.006 7.1719C105.003 8.03559 105.864 8.39969 107.69 8.82025C110.301 9.42144 112.093 10.2541 112.082 12.481Z" fill="#3B6971"/>
<path d="M125.641 13.6383L120.211 13.6157L119.115 16.0769L116.51 16.0656L122.353 3.93164L123.578 3.93729L129.341 16.1192L126.736 16.1079L125.641 13.6383ZM121.097 11.5665L124.769 11.5806L122.94 7.55574L121.097 11.5665Z" fill="#3B6971"/>
<path d="M72.9477 38.4877L70.4639 38.4764L70.5119 26.3198L72.9957 26.3311L72.9477 38.4877Z" fill="#3B6971"/>
<path d="M90.2778 26.3989L90.2298 38.5555L89.0218 38.5498L81.7933 30.8641L81.7623 38.5216L79.2954 38.5103L79.3434 26.3538L80.5514 26.3594L87.7629 34.0451L87.794 26.3876L90.2778 26.3989Z" fill="#3B6971"/>
<path d="M105.463 26.4582L108.153 26.4695L102.432 38.6035L101.294 38.5978L95.686 26.4187L98.359 26.43L101.879 34.3753L105.463 26.4582Z" fill="#3B6971"/>
<path d="M115.994 38.66L113.51 38.6487L113.558 26.4922L116.042 26.5035L115.994 38.66Z" fill="#3B6971"/>
<path d="M131.955 28.705L128.077 28.6881L128.037 38.708L125.554 38.6967L125.593 28.6768L121.729 28.6627L121.737 26.5232L131.963 26.5655L131.955 28.705Z" fill="#3B6971"/>
<path d="M144.055 36.306L138.625 36.2834L137.529 38.7446L134.924 38.7333L140.767 26.5994L141.992 26.605L147.755 38.787L145.15 38.7757L144.055 36.306ZM139.511 34.2343L143.183 34.2484L141.354 30.2235L139.511 34.2343Z" fill="#3B6971"/>
<path d="M161.295 35.0472L163.203 36.6757C162.006 38.0842 160.211 38.9761 158.176 38.9676C154.64 38.9535 151.772 36.1649 151.786 32.7327C151.8 29.3005 154.691 26.5204 158.227 26.5345C160.262 26.5429 162.052 27.4631 163.234 28.8828L161.315 30.4973C160.629 29.5122 159.494 28.8856 158.219 28.88C156.096 28.8715 154.349 30.4154 154.341 32.744C154.332 35.0387 156.065 36.6306 158.188 36.639C159.461 36.6447 160.604 36.0266 161.295 35.0472Z" fill="#3B6971"/>
<path d="M171.377 38.88L168.893 38.8687L168.941 26.7122L171.425 26.7234L171.377 38.88Z" fill="#3B6971"/>
<path d="M190.186 32.8851C190.172 36.3173 187.282 39.0805 183.694 39.0664C180.124 39.0523 177.239 36.2637 177.253 32.8315C177.268 29.3993 180.175 26.6361 183.745 26.6502C187.33 26.6671 190.2 29.4558 190.186 32.8851ZM187.669 32.8767C187.677 30.7372 185.907 28.9731 183.737 28.9647C181.563 28.9562 179.797 30.7061 179.788 32.8456C179.78 35.002 181.532 36.7491 183.706 36.7576C185.876 36.7661 187.66 35.0331 187.669 32.8767Z" fill="#3B6971"/>
<path d="M207 26.8674L206.952 39.024L205.744 39.0183L198.516 31.3326L198.484 38.9901L196.018 38.9788L196.066 26.8223L197.274 26.8279L204.485 34.5136L204.516 26.8561L207 26.8674Z" fill="#3B6971"/>
<path d="M186.602 22.9305L180.85 22.9075L180.841 24.9481L186.594 24.9712L186.602 22.9305Z" fill="#3B6971"/>
<path d="M61.878 0H61.0312V43.6303H61.878V0Z" fill="#3B6971"/>
<path d="M54.113 24.8043C53.1026 23.6866 53.3566 23.1785 53.7038 22.4701C53.9888 21.8943 54.384 21.1011 53.8364 20.0992C53.1618 18.8516 51.8353 18.098 48.4285 18.194C48.389 18.194 48.3466 18.194 48.3071 18.1968C48.2055 18.352 48.087 18.5101 47.9543 18.6625C48.6571 17.8186 48.9394 16.9125 49.0325 16.173C49.1482 15.2868 48.9986 14.6348 48.993 14.6207C48.9817 14.584 48.9535 14.5247 48.9337 14.488C48.914 14.457 48.8914 14.4316 48.8632 14.4033C48.8406 14.3807 46.2834 12.0183 42.8879 14.0703C42.4561 14.3328 42.0948 14.5134 41.7871 14.6348C44.1213 9.69538 44.0875 7.69705 43.1194 6.35353C42.4589 5.43622 41.6517 5.51243 41.0646 5.56323C40.4069 5.61968 39.9694 5.66484 39.4078 4.34108C38.7445 2.77459 37.8497 2.41613 37.2118 2.39638C35.8655 2.34557 34.6772 3.73142 34.0619 4.93099C33.7514 5.53501 33.52 5.93016 33.3591 6.17854C33.1954 5.93016 32.9668 5.53501 32.6591 4.93099C32.041 3.73142 30.8358 2.34839 29.5036 2.39638C28.8685 2.41613 27.9738 2.77459 27.3105 4.34108C26.7488 5.66484 26.3113 5.61968 25.6508 5.56323C25.0666 5.51243 24.2593 5.43622 23.5989 6.35353C22.7211 7.57286 22.6138 9.3341 24.3468 13.3364C24.3977 13.3731 24.4456 13.4042 24.4964 13.438C25.1569 13.8868 25.6508 14.1267 26.0432 14.2424C23.9263 9.80546 23.8529 8.01035 24.5472 7.03658C24.7392 6.77691 24.8944 6.70635 25.1795 6.70635C25.2811 6.70635 25.4025 6.71764 25.5464 6.72893C26.5286 6.81925 27.5589 6.74022 28.3887 4.79833C28.6229 4.24794 29.0125 3.58465 29.5459 3.56489C30.1782 3.53949 31.039 4.34108 31.6148 5.46444C31.6317 5.49549 31.643 5.51807 31.66 5.5463C31.8265 6.18701 31.8688 6.75151 31.8999 7.27085C31.9168 7.54463 31.9366 7.80713 31.9676 8.06397C32.01 8.38292 32.0523 8.71597 31.9789 9.0208C31.9281 9.24378 31.8152 9.447 31.6938 9.66434L31.6261 9.78288C30.7342 11.434 30.4576 13.4437 30.8499 15.2868C30.9261 15.3009 31.0023 15.3178 31.0757 15.3319C31.1434 15.3489 31.2112 15.3602 31.2761 15.3743C30.8471 13.5763 31.0898 11.5921 31.9704 9.96917L32.0382 9.85062C32.1624 9.622 32.295 9.38491 32.3599 9.11395C32.4503 8.73855 32.3995 8.35187 32.3571 8.01317C32.3233 7.76761 32.3063 7.51358 32.2922 7.24827C32.2753 7.03658 32.2612 6.81925 32.2414 6.59627C32.8454 7.59262 33.091 7.63495 33.266 7.66318C33.3281 7.67447 33.393 7.67447 33.4494 7.66318C33.4692 7.66318 33.4946 7.65753 33.5115 7.65189C33.6724 8.69904 33.7627 9.81675 33.4381 10.8441C33.3478 11.1208 33.2265 11.3974 33.1107 11.6683C32.899 12.151 32.6845 12.6506 32.6309 13.1925C32.5688 13.7993 32.7128 14.3836 32.8539 14.9537C32.8849 15.0836 32.916 15.2162 32.9442 15.3432C33.0119 15.6565 33.0825 16.0545 33.0628 16.4496C33.1728 16.6077 33.2744 16.7912 33.3732 17.0057C33.5369 16.3932 33.4353 15.7384 33.3252 15.2585C33.2942 15.1259 33.2632 14.9932 33.2321 14.8606C33.0938 14.2989 32.9611 13.7711 33.0176 13.232C33.0684 12.7493 33.2632 12.3006 33.4692 11.8236C33.5906 11.5469 33.7148 11.2562 33.8107 10.9599C34.1776 9.79699 34.0563 8.5692 33.8756 7.42891C34.1268 7.17488 34.4994 6.63861 35.1006 5.46444C35.5945 4.51326 36.2889 3.79916 36.8731 3.6157C36.9832 4.45681 36.9239 5.34872 36.8647 6.20959C36.7687 7.57568 36.6671 8.98976 37.2598 10.2571C37.3106 10.3643 37.3643 10.4688 37.4207 10.5732C37.5618 10.8441 37.6945 11.101 37.7397 11.3748C37.8723 12.1425 37.3106 12.8425 36.7687 13.5171C36.6445 13.6723 36.5175 13.8247 36.4046 13.9828C35.9982 14.5247 35.6933 15.1174 35.4647 15.7356C35.4958 15.7271 35.5268 15.7214 35.555 15.7158C34.8155 15.8936 34.1099 16.3001 33.5906 17.6831C33.0317 15.7497 32.0297 15.5436 31.0588 15.3404C30.483 15.2219 29.8903 15.1033 29.306 14.5868C28.3943 13.7852 27.8298 13.9941 27.3302 14.1775C26.7827 14.3751 26.1674 14.6009 24.4795 13.4465C21.2054 11.2026 18.5212 13.4183 18.493 13.438C18.4647 13.4663 18.4224 13.5199 18.4026 13.5509C18.3829 13.5792 18.3688 13.6158 18.3575 13.6497C18.3434 13.6836 17.3696 17.0254 20.7227 19.1508C21.5526 19.6758 21.99 20.102 22.2243 20.4689C14.341 19.9383 12.1226 20.9205 11.3266 22.7862C10.8778 23.8362 11.3407 24.5898 11.6822 25.1373C12.0943 25.8091 12.3963 26.2917 11.4931 27.5026C11.1629 27.9429 10.954 28.3493 10.8355 28.7163C10.7847 28.863 10.748 29.0013 10.7254 29.1368C10.6972 29.2977 10.6831 29.4501 10.6859 29.5941C10.6859 29.7013 10.6944 29.8029 10.7085 29.9017C10.7169 29.9525 10.7254 30.0033 10.7339 30.0513C10.7734 30.232 10.827 30.39 10.8919 30.5283C10.9202 30.5876 10.9512 30.6469 10.9851 30.7033C11.6399 31.8521 13.2092 32.3912 14.4906 32.5154C14.5753 32.5238 14.66 32.5295 14.7418 32.5351C15.0721 32.5549 15.3515 32.5803 15.5858 32.6029C15.9414 32.6396 16.1983 32.6791 16.3761 32.7101C16.2491 32.9867 16.0148 33.4355 15.5688 34.1411C14.8322 35.3125 14.231 37.1443 14.9648 38.4398C15.3035 39.041 16.0656 39.7551 17.7732 39.7128C19.2861 39.6817 19.5034 40.2067 19.8083 40.9349C20.0566 41.5276 20.3982 42.3433 21.513 42.5889C21.7445 42.6397 21.9759 42.6679 22.213 42.6679C24.0872 42.6679 26.2492 40.8643 30.2431 34.2427C30.4802 34.6266 30.6636 35.2419 30.6918 36.3794C30.7229 37.5056 31.0136 38.3805 31.4201 39.0608L31.9987 39.837C32.4926 40.3761 33.0374 40.7232 33.4607 40.9377C33.8869 41.1494 34.1889 41.2313 34.2002 41.2313C34.2313 41.2341 34.2764 41.2397 34.3159 41.2397H34.3442C34.3837 41.2397 34.4176 41.2313 34.4543 41.22C34.4853 41.2059 37.7622 40.0374 37.5167 36.0746C37.3897 34.0339 37.9005 33.619 38.3493 33.2549C38.7614 32.9218 39.2299 32.5408 39.0098 31.3468C38.8687 30.5819 39.0662 30.009 39.261 29.4529C39.5715 28.5639 39.8904 27.6465 38.7445 26.2917C38.9646 26.3228 39.1763 26.3425 39.3626 26.3425C39.7577 26.3425 40.0739 26.2776 40.3476 26.1704C43.204 27.0764 45.9757 28.2703 48.5612 29.7437C48.5216 29.786 48.5019 29.8255 48.4821 29.8594C48.4539 29.9074 48.4341 29.9582 48.42 30.009C48.3692 30.2122 48.2761 30.5932 49.7551 32.5154C50.4297 33.3932 50.9913 34.7169 50.6216 35.5439C50.6159 35.5524 50.6131 35.5552 50.6103 35.5637C49.8764 35.2476 49.2583 34.6492 48.6628 34.0677C47.895 33.3254 47.1076 32.5605 46.0491 32.3319C45.7189 32.2557 45.3745 32.2444 45.0471 32.2331C44.5871 32.2134 44.1524 32.1992 43.7601 32.0299C43.4298 31.8888 43.1419 31.6432 42.8625 31.4061L39.6844 28.7078C39.6336 28.6655 39.5827 28.6231 39.5319 28.5751C39.5037 28.7247 39.4699 28.8659 39.4275 29.0013C39.4275 29.0042 39.4303 29.0042 39.4303 29.0042L42.6085 31.7053C42.9105 31.9593 43.2238 32.2246 43.6076 32.3884C44.0677 32.5859 44.556 32.6057 45.0302 32.6226C45.3604 32.6367 45.6681 32.648 45.9673 32.7129C46.9156 32.9162 47.6297 33.6105 48.389 34.35C48.9902 34.9343 49.6139 35.5355 50.376 35.8883C50.0797 36.1677 49.5942 36.337 48.9224 36.3878C46.6249 36.5544 46.2523 37.7455 45.9786 38.612C45.7951 39.2047 45.6878 39.4983 45.1995 39.6535C43.8617 40.0825 41.9706 39.0805 37.8892 33.7403C37.6973 34.0254 37.5534 34.4516 37.5223 35.1713C40.9884 39.5745 42.9867 40.9264 44.5983 40.9264C44.9286 40.9264 45.2447 40.8672 45.5552 40.7712C46.6447 40.4184 46.91 39.5745 47.0991 38.9592C47.3334 38.2084 47.5027 37.6664 49.0099 37.5535C50.7147 37.4294 51.4062 36.6532 51.6857 36.0237C52.2953 34.6605 51.5276 32.8964 50.6837 31.8013C50.1756 31.1408 49.8962 30.7146 49.7438 30.4549C50.0345 30.3674 50.5313 30.2517 51.3554 30.1247C52.7243 29.9102 54.4969 29.1707 54.9965 27.7651C55.2279 27.1131 55.2618 26.0744 54.113 24.8043ZM35.922 15.6368C36.128 15.1372 36.3848 14.6574 36.7179 14.217C36.8308 14.0646 36.9522 13.915 37.0735 13.7626C37.6437 13.0513 38.2872 12.2526 38.1263 11.307C38.0671 10.9712 37.9146 10.6804 37.7679 10.3954C37.7114 10.2938 37.6606 10.1921 37.6098 10.0905C37.0594 8.91637 37.1554 7.6152 37.2514 6.23781C37.3135 5.36001 37.3727 4.45681 37.2598 3.58465C37.7481 3.66651 38.1122 4.27899 38.3296 4.79833C39.1566 6.74586 40.1868 6.81925 41.1718 6.72893C41.7137 6.67812 41.9113 6.68377 42.171 7.03658C42.8964 8.04422 42.7835 9.94659 40.4182 14.7787C40.2686 14.742 40.1331 14.6969 40.0033 14.6404C39.515 14.4316 38.9618 14.1916 38.005 14.9424C37.3953 15.4223 36.7941 15.5126 36.2127 15.5972C36.0659 15.617 35.9135 15.6396 35.7639 15.6706C35.8147 15.6593 35.8711 15.6452 35.922 15.6368ZM21.1405 18.4903C18.5635 16.8589 18.9587 14.488 19.0772 13.9743C19.5034 13.661 21.53 12.3683 24.0392 14.09C26.0573 15.4731 26.9464 15.1485 27.5984 14.9114C28.0274 14.7505 28.2278 14.6799 28.7895 15.1767C29.5262 15.8231 30.2572 15.9726 30.9007 16.1053C31.8237 16.2972 32.4277 16.4214 32.8595 17.9512C33.091 18.7782 33.0938 19.7774 33.0402 20.802C32.5942 19.704 32.0946 18.6258 31.5527 17.5815C31.6035 17.5194 31.6346 17.4403 31.6346 17.3528C31.6346 17.144 31.468 16.9746 31.2563 16.9746C31.0503 16.9746 30.8781 17.144 30.8781 17.3528C30.8781 17.5363 31.0108 17.6831 31.183 17.717C31.7475 18.7952 32.2612 19.9072 32.7156 21.039C32.6958 21.0024 32.6817 20.9657 32.6591 20.9346C32.2527 20.3052 31.66 19.8028 30.9769 19.5008C30.9205 19.3597 30.785 19.258 30.6241 19.258C30.4124 19.258 30.2459 19.4274 30.2459 19.6363C30.2459 19.8451 30.4124 20.0173 30.6241 20.0173C30.7257 20.0173 30.8245 19.9721 30.8894 19.9016C31.4709 20.1754 31.9789 20.6016 32.3289 21.1435C32.6817 21.691 32.8765 22.3346 32.8849 22.9838C31.1096 22.8426 29.3173 22.8257 27.5447 22.9527C27.4939 22.9245 27.4347 22.9047 27.3726 22.9047C27.1665 22.9047 26.9944 23.0769 26.9944 23.2829C26.9944 23.4946 27.1665 23.6612 27.3726 23.6612C27.5645 23.6612 27.7169 23.5172 27.7423 23.3337C29.2891 23.2321 30.8499 23.235 32.3995 23.3366C32.1821 23.4466 31.962 23.5595 31.7475 23.6696C30.5394 24.2878 29.2891 24.9256 28.1601 25.0752C26.5879 25.2813 26.2323 24.7732 25.6932 24.0027C25.3206 23.4636 24.8944 22.8539 24.0081 22.4277C23.3279 22.1088 23.3166 21.8971 23.294 21.437C23.2545 20.7455 23.2037 19.8028 21.1405 18.4903ZM12.4302 28.2026C13.8076 26.3538 13.1556 25.2926 12.6758 24.5192C12.354 23.9942 12.2044 23.7176 12.4048 23.2491C12.9778 21.9027 15.1229 21.1237 22.5263 21.66C22.563 22.1426 22.6957 22.6705 23.6723 23.1362C24.3722 23.4692 24.7194 23.966 25.0553 24.4458C25.5549 25.1656 26.0658 25.8994 27.5419 25.8994C27.7593 25.8994 28.002 25.8825 28.2673 25.8486C28.8064 25.778 29.3512 25.6087 29.8987 25.3998C29.4895 25.7301 29.1141 26.0829 28.8092 26.4696C28.575 26.7603 28.4 27.0312 28.2701 27.2853C27.7988 27.5421 27.3133 27.7707 26.8081 27.9231C25.6508 28.2703 24.3214 28.2449 23.0598 27.8413C22.7832 27.7538 22.5094 27.6522 22.2356 27.5449C21.5243 27.2711 20.799 27.003 20.0086 27.0002C18.778 27.0115 17.7506 27.7143 16.7571 28.3889C16.1305 28.8151 15.4842 29.2554 14.7927 29.5179C13.8669 29.8679 12.8084 29.8876 11.8572 29.5912C11.8544 29.1876 12.0407 28.7247 12.4302 28.2026ZM11.956 30.0372C11.956 30.0316 11.9504 30.0231 11.9504 30.0203C12.3653 30.1303 12.7887 30.1924 13.2149 30.1924C13.802 30.1924 14.3862 30.0908 14.9338 29.8848C15.662 29.6054 16.3309 29.1509 16.9745 28.7134C17.9652 28.036 18.8994 27.401 20.0115 27.3897C20.7086 27.3812 21.3889 27.6381 22.0945 27.909C22.3767 28.0191 22.659 28.1235 22.9412 28.2139C24.2763 28.6372 25.6875 28.6711 26.9153 28.2985C27.3105 28.1772 27.6802 28.0191 28.0472 27.8385C27.9512 28.1659 27.9343 28.4622 27.9709 28.736C26.6811 29.436 25.4222 30.184 24.2085 30.9884L24.0081 31.121C23.3053 31.5896 22.58 32.0694 21.784 32.3319C20.4574 32.7553 19.0123 32.5577 17.6885 32.315C17.6857 32.2416 17.666 32.188 17.6547 32.1428C17.6349 32.092 17.6095 32.0468 17.5785 32.0045C17.4571 31.8323 17.2313 31.5106 14.8124 31.3666C13.7032 31.3017 12.3371 30.8557 11.956 30.0372ZM17.4515 38.5386C16.712 38.5019 16.218 38.2789 15.9838 37.8612C15.5378 37.0737 15.9668 35.7048 16.5595 34.7677C17.2426 33.6811 17.5248 33.0686 17.6349 32.7017C18.4111 32.8428 19.2268 32.9726 20.0453 32.9726C20.6719 32.9726 21.2957 32.8964 21.9054 32.7017C22.7521 32.425 23.5001 31.9283 24.2255 31.4456L24.4231 31.313C25.5916 30.5396 26.8109 29.8142 28.0528 29.1368C28.129 29.4191 28.2476 29.6816 28.3633 29.9412C28.3887 29.9892 28.4084 30.0372 28.431 30.0824C27.9089 30.5283 27.4008 30.9856 26.9153 31.4682C26.6077 31.7815 26.3028 32.0976 25.998 32.4166C24.5416 33.9436 23.04 35.5157 21.0502 36.0435C20.7877 36.1084 20.5139 36.1592 20.2486 36.21C19.6925 36.3173 19.1167 36.4217 18.5974 36.6955C17.9143 37.054 17.3837 37.8104 17.4515 38.5386ZM21.7671 41.4458C21.2675 41.3357 21.1264 41.0563 20.8893 40.4805C20.5449 39.662 20.0764 38.5414 17.8889 38.5414H17.8494C17.7732 37.9713 18.2192 37.3306 18.778 37.0398C19.2466 36.7971 19.7687 36.6983 20.3191 36.5939C20.5929 36.5431 20.8752 36.4923 21.1518 36.4189C23.2461 35.8685 24.79 34.2512 26.2803 32.6875C26.5851 32.3714 26.8899 32.0553 27.1919 31.7448C27.6379 31.296 28.1064 30.8698 28.5863 30.4606C28.7302 30.8473 28.8318 31.2735 28.7867 31.8041C28.6935 32.775 29.0012 33.1787 29.3512 33.4553C25.2021 40.3761 23.2432 41.7732 21.7671 41.4458ZM38.5243 29.2017C38.3098 29.817 38.0642 30.5199 38.2449 31.488C38.3804 32.2246 38.2167 32.3573 37.8582 32.648C37.3219 33.0855 36.5852 33.6811 36.7377 36.1254C36.9268 39.1624 34.7817 40.2406 34.2934 40.441C33.8023 40.2829 31.5527 39.3797 31.4709 36.3596C31.4088 33.9125 30.6213 33.3819 30.0455 32.9952C29.6645 32.7412 29.4923 32.6226 29.5628 31.8747C29.6532 30.8952 29.3483 30.2207 29.0774 29.6195C28.6879 28.7643 28.4338 28.1969 29.4217 26.9522C29.7265 26.5655 30.1217 26.2099 30.562 25.8712C30.3814 26.67 30.5931 27.4433 30.7681 28.101C30.7793 28.1546 30.7963 28.2026 30.8076 28.2534C30.7342 28.3211 30.6862 28.4199 30.6862 28.53C30.6862 28.736 30.8584 28.9082 31.0644 28.9082C31.2761 28.9082 31.4426 28.736 31.4426 28.53C31.4426 28.3606 31.3382 28.2252 31.1914 28.1743C31.1745 28.1151 31.1632 28.0614 31.1434 27.9994C30.9289 27.2034 30.6975 26.3425 31.1011 25.4817C31.5414 25.1768 32.0071 24.8833 32.4672 24.5954C32.8087 24.3753 33.1644 24.1523 33.5002 23.9321C33.6639 24.2228 33.8728 24.5079 34.076 24.7902C34.1833 24.9341 34.2849 25.0781 34.378 25.2164C35.0752 26.2494 35.8232 27.2683 36.605 28.2393C36.6078 28.2449 36.6078 28.2449 36.6078 28.2449C36.6078 28.2477 36.6078 28.2477 36.6078 28.2477C36.6078 28.4594 36.78 28.626 36.986 28.626C37.1977 28.626 37.3643 28.4594 37.3643 28.2477C37.3643 28.0417 37.1977 27.8695 36.986 27.8695C36.9324 27.8695 36.8816 27.8808 36.8393 27.9006C36.0885 26.9635 35.3716 25.9926 34.7026 25.0019C34.6095 24.8551 34.4994 24.7083 34.3922 24.5587L34.1805 24.268C34.3414 24.3555 34.4994 24.4515 34.6631 24.5474C35.4337 24.9962 36.2211 25.4535 37.0058 25.7922C37.3586 26.0349 37.6804 26.2917 37.9429 26.5712C39.0408 27.7256 38.832 28.3098 38.5243 29.2017ZM38.5554 25.476C38.1771 25.4026 37.782 25.27 37.384 25.1035C36.6756 24.6208 35.8599 24.2087 35.0611 23.8023C35.4986 23.8531 35.9361 23.87 36.3425 23.8757C36.5965 23.8841 36.8506 23.8841 37.1074 23.8841C37.5477 23.8841 37.9937 23.87 38.434 23.8531C38.4961 23.9829 38.6259 24.0676 38.7755 24.0676C38.9844 24.0676 39.1537 23.9011 39.1537 23.6894C39.1537 23.4833 38.9844 23.3112 38.7755 23.3112C38.6485 23.3112 38.5469 23.3761 38.4791 23.4664C37.7707 23.489 37.0566 23.5031 36.351 23.4862C35.5804 23.4692 34.7224 23.4269 33.9349 23.1672C33.9377 22.933 33.9377 22.693 33.9377 22.4531C33.9462 22.4362 33.9575 22.4164 33.966 22.4023C34.5813 21.6995 35.3829 21.039 36.2494 20.6862C36.2945 20.7116 36.351 20.7257 36.4103 20.7257C36.6191 20.7257 36.7885 20.5592 36.7885 20.3475C36.7885 20.1358 36.6191 19.9693 36.4103 19.9693C36.2014 19.9693 36.0292 20.1358 36.0292 20.3475V20.3532C35.5494 20.5592 35.0865 20.8471 34.6631 21.1915C35.4675 19.8338 36.4272 18.4423 37.6776 17.3303C37.7114 17.3416 37.7453 17.3528 37.782 17.3528C37.9909 17.3528 38.1602 17.1835 38.1602 16.9746C38.1602 16.7658 37.9909 16.5964 37.782 16.5964C37.5731 16.5964 37.4038 16.7658 37.4038 16.9746C37.4038 17 37.4122 17.0198 37.4151 17.0424C35.9163 18.3774 34.8268 20.0907 33.9293 21.6741C33.9152 20.404 33.9236 19.1056 34.2708 18.1008C34.7845 16.5964 35.397 16.5061 36.3284 16.3678C36.9776 16.2718 37.7114 16.1646 38.4904 15.5577C39.0775 15.0948 39.2695 15.1767 39.6928 15.3602C40.3279 15.6339 41.1972 16.0065 43.2943 14.742C45.8967 13.1671 47.8499 14.5699 48.2507 14.9057C48.3466 15.4307 48.5978 17.8157 45.9419 19.2976C43.8052 20.4887 43.7008 21.4342 43.6218 22.1201C43.571 22.5773 43.5484 22.7834 42.854 23.0684C41.9452 23.4438 41.4879 24.0281 41.0815 24.5446C40.5029 25.2869 40.1219 25.7724 38.5554 25.476ZM53.8929 27.3699C53.5909 28.2252 52.2727 28.7981 51.1748 28.9675C49.9301 29.1566 49.2809 29.3457 48.9281 29.5009C46.385 28.036 43.6585 26.8393 40.8444 25.9192C40.7682 25.9728 40.6835 26.0208 40.5932 26.0631C41.0787 25.8091 41.3892 25.4139 41.6968 25.0244C42.0581 24.5644 42.4307 24.0874 43.1504 23.791C44.2738 23.3309 44.3415 22.7326 44.398 22.2047C44.4629 21.629 44.5363 20.977 46.3229 19.9806C46.6955 19.7746 47.0172 19.5516 47.2967 19.3173C47.2459 19.3597 47.1951 19.402 47.1442 19.4415C47.9543 19.3766 48.6741 19.3455 49.2978 19.3568C51.7845 19.3963 52.4562 20.0032 52.8062 20.6552C53.0518 21.104 52.9304 21.3947 52.6538 21.9535C52.253 22.7692 51.7026 23.8813 53.2465 25.5889C53.5683 25.9446 53.7743 26.2776 53.8816 26.5881L50.4014 25.3321C49.6619 25.0639 48.818 24.7591 48.2083 24.2003C48.0136 24.0253 47.8471 23.8249 47.6664 23.616C47.4039 23.3112 47.1358 22.995 46.7914 22.7551C46.0802 22.2697 45.1967 22.2019 44.4177 22.1935C44.4177 22.1935 44.4177 22.1935 44.4177 22.1991C44.4036 22.3233 44.3867 22.4531 44.3613 22.5858C45.2137 22.5914 45.9729 22.6676 46.5685 23.0769C46.8733 23.2858 47.116 23.568 47.3701 23.87C47.5479 24.0789 47.7313 24.2934 47.943 24.4882C48.6148 25.0978 49.4926 25.4196 50.2688 25.699L53.9493 27.0312C53.9493 27.147 53.9296 27.2599 53.8929 27.3699Z" fill="#3B6971"/>
<path d="M30.438 21.3299C30.438 21.3299 27.0651 18.7134 26.4837 20.0654C25.9079 21.4173 30.438 21.3299 30.438 21.3299Z" fill="#3B6971"/>
<path d="M30.5901 21.101C30.5901 21.101 28.8853 16.9011 27.8692 17.9652C26.8559 19.0321 30.5901 21.101 30.5901 21.101Z" fill="#3B6971"/>
<path d="M26.0547 18.4395C26.0547 18.4395 22.6818 15.823 22.1003 17.175C21.5217 18.5298 26.0547 18.4395 26.0547 18.4395Z" fill="#3B6971"/>
<path d="M26.204 18.2138C26.204 18.2138 24.4992 14.0139 23.4831 15.078C22.4727 16.1421 26.204 18.2138 26.204 18.2138Z" fill="#3B6971"/>
<path d="M25.5748 19.7068C25.3801 19.5769 25.1148 19.6306 24.9878 19.8281C24.8579 20.0229 24.9116 20.2882 25.1091 20.4152C25.3039 20.545 25.5692 20.4914 25.6962 20.2938C25.8261 20.0991 25.7724 19.8366 25.5748 19.7068Z" fill="#3B6971"/>
<path d="M31.4231 22.1991C31.6178 22.329 31.8831 22.2754 32.0102 22.0778C32.14 21.883 32.0864 21.6177 31.8888 21.4907C31.694 21.3609 31.4287 21.4145 31.3017 21.6121C31.1747 21.8096 31.2283 22.0693 31.4231 22.1991Z" fill="#3B6971"/>
<path d="M27.1382 17.3359C27.3329 17.4657 27.5983 17.4121 27.7253 17.2145C27.8551 17.0197 27.8015 16.7544 27.6039 16.6274C27.4092 16.4976 27.1438 16.5512 27.0168 16.7488C26.887 16.9435 26.9434 17.206 27.1382 17.3359Z" fill="#3B6971"/>
<path d="M21.9249 15.0581C21.7302 14.9282 21.4649 14.9819 21.3379 15.1794C21.208 15.3742 21.2617 15.6395 21.4592 15.7665C21.654 15.8964 21.9193 15.8427 22.0463 15.6452C22.1733 15.4504 22.1197 15.1879 21.9249 15.0581Z" fill="#3B6971"/>
<path d="M39.4982 18.8291C38.5442 17.7085 36.6079 21.8068 36.6079 21.8068C36.6079 21.8068 40.4522 19.9496 39.4982 18.8291Z" fill="#3B6971"/>
<path d="M40.7624 21.0024C40.26 19.6193 36.7432 22.041 36.7432 22.041C36.7432 22.041 41.2648 22.3854 40.7624 21.0024Z" fill="#3B6971"/>
<path d="M44.0367 16.1899C43.0827 15.0694 41.1465 19.1676 41.1465 19.1676C41.1465 19.1676 44.9907 17.3104 44.0367 16.1899Z" fill="#3B6971"/>
<path d="M45.301 18.3661C44.7986 16.9831 41.2817 19.4048 41.2817 19.4048C41.2817 19.4048 45.8034 19.7463 45.301 18.3661Z" fill="#3B6971"/>
<path d="M40.2262 18.1743C40.4294 18.0557 40.4971 17.7961 40.3786 17.5928C40.2601 17.3896 40.0004 17.3219 39.7972 17.4404C39.594 17.559 39.5262 17.8186 39.6448 18.0219C39.7633 18.2251 40.023 18.2928 40.2262 18.1743Z" fill="#3B6971"/>
<path d="M35.3914 22.3006C35.1882 22.4191 35.1205 22.6788 35.239 22.882C35.3575 23.0853 35.6172 23.153 35.8204 23.0344C36.0236 22.9159 36.0914 22.6562 35.9728 22.453C35.8543 22.2526 35.5946 22.1849 35.3914 22.3006Z" fill="#3B6971"/>
<path d="M41.6546 20.6297C41.4514 20.7483 41.3836 21.0079 41.5022 21.2112C41.6207 21.4144 41.8804 21.4821 42.0836 21.3636C42.2868 21.245 42.3546 20.9854 42.236 20.7821C42.1175 20.5817 41.855 20.5112 41.6546 20.6297Z" fill="#3B6971"/>
<path d="M46.0153 16.9746C46.2185 16.856 46.2862 16.5963 46.1677 16.3931C46.0491 16.1899 45.7895 16.1222 45.5862 16.2407C45.383 16.3592 45.3153 16.6189 45.4338 16.8221C45.5524 17.0254 45.812 17.0931 46.0153 16.9746Z" fill="#3B6971"/>
<path d="M34.8721 30.8698C36.3059 30.5452 33.5737 26.9268 33.5737 26.9268C33.5737 26.9268 33.4383 31.1944 34.8721 30.8698Z" fill="#3B6971"/>
<path d="M32.3598 30.9798C33.8162 31.1746 33.3025 26.938 33.3025 26.938C33.3025 26.938 30.9034 30.7851 32.3598 30.9798Z" fill="#3B6971"/>
<path d="M35.1065 36.1142C36.5403 35.7896 33.8081 32.1711 33.8081 32.1711C33.8081 32.1711 33.6726 36.4388 35.1065 36.1142Z" fill="#3B6971"/>
<path d="M33.534 32.1851C33.534 32.1851 31.1349 36.0321 32.5913 36.2269C34.0505 36.4216 33.534 32.1851 33.534 32.1851Z" fill="#3B6971"/>
<path d="M35.521 31.375C35.2867 31.3863 35.1061 31.5839 35.1145 31.8181C35.1258 32.0524 35.3234 32.2331 35.5577 32.2246C35.7919 32.2133 35.9726 32.0157 35.9641 31.7815C35.9528 31.5444 35.7553 31.3637 35.521 31.375Z" fill="#3B6971"/>
<path d="M33.294 26.0632C33.5283 26.0519 33.7089 25.8544 33.7004 25.6201C33.6892 25.3858 33.4916 25.2052 33.2573 25.2137C33.023 25.225 32.8424 25.4225 32.8509 25.6568C32.8622 25.8911 33.0597 26.0745 33.294 26.0632Z" fill="#3B6971"/>
<path d="M32.2781 31.9424C32.2668 31.7081 32.0692 31.5275 31.8349 31.5359C31.6007 31.5472 31.42 31.7448 31.4285 31.9791C31.4398 32.2133 31.6374 32.394 31.8716 32.3855C32.1059 32.377 32.2894 32.1766 32.2781 31.9424Z" fill="#3B6971"/>
<path d="M33.9009 37.0596C33.6666 37.0709 33.486 37.2684 33.4944 37.5027C33.5057 37.737 33.7033 37.9176 33.9376 37.9092C34.1718 37.8979 34.3525 37.7003 34.344 37.466C34.3327 37.2289 34.1351 37.0483 33.9009 37.0596Z" fill="#3B6971"/>
<path d="M16.4693 31.8296C15.8004 32.0272 15.1399 32.2586 14.4907 32.5155C14.5754 32.5239 14.6601 32.5296 14.7419 32.5352C15.0722 32.555 15.3516 32.5804 15.5859 32.603C15.9528 32.4759 16.3254 32.3574 16.7008 32.2473L16.4693 31.8296Z" fill="#3B6971" stroke="#3B6971" stroke-miterlimit="10"/>
<path d="M13.1359 33.7799C13.9403 33.3847 14.7814 33.0347 15.6338 32.7355L16.2378 32.5238L15.6 32.4617C15.3629 32.4392 15.0834 32.4138 14.7363 32.394C14.6601 32.3884 14.5839 32.3827 14.5048 32.3742L14.471 32.3714L14.4371 32.3855C13.8585 32.617 13.277 32.8738 12.7154 33.1533C12.6194 33.1448 12.5291 33.1928 12.4811 33.2746L12.4698 33.2803C11.5751 33.7319 10.6916 34.2569 9.83639 34.8439L8.96424 34.0706C8.17394 33.3734 7.2792 32.5859 6.12197 32.3234C4.93934 32.0553 3.42365 32.5916 3.05108 33.8165C2.95794 34.1129 2.95512 34.4008 3.04262 34.652C3.13294 34.8947 3.29664 35.081 3.41519 35.1911C3.943 35.702 4.69378 36.0379 5.65061 36.1875C6.44656 36.3145 7.27638 36.3116 8.07797 36.179C7.18888 36.9241 6.36189 37.7342 5.61392 38.5894C4.82362 38.5217 3.99098 38.7926 3.31358 39.3317C2.67287 39.8454 2.16199 40.6019 1.83458 41.5192C1.6991 41.8946 1.55798 42.3942 1.65112 42.9248C1.74144 43.4187 2.10272 43.9748 2.70674 44.1018C2.79423 44.1215 2.88173 44.13 2.97205 44.13C3.40954 44.13 3.86114 43.8957 4.31557 43.4328C5.42481 42.301 6.07681 40.743 6.10786 39.1567C7.61508 37.4209 9.38762 35.9363 11.3831 34.731L10.2005 36.3427C9.71503 37.0116 9.2098 37.7031 8.85416 38.4906C8.66223 38.9027 8.28966 39.9386 8.92755 40.6527C9.17875 40.9293 9.52592 41.0789 9.93236 41.0845C10.4489 41.0845 11.0218 40.8418 11.3916 40.4494C11.7811 40.043 12.0041 39.5378 12.2214 39.0495L12.2525 38.9846C12.3258 38.8152 12.4049 38.6374 12.4924 38.468C12.5601 38.3326 12.6363 38.1999 12.7125 38.0616L12.7295 38.0334C12.9694 37.6072 13.2178 37.1669 13.2968 36.6447C13.3758 36.1169 13.2686 35.5891 13.1726 35.1234C13.0795 34.6689 12.9891 34.2371 13.0653 33.8561C13.0936 33.8363 13.1162 33.8109 13.1359 33.7799ZM4.88854 41.2623C4.6204 41.872 4.245 42.4337 3.77929 42.9107C3.42648 43.2691 3.116 43.4244 2.86198 43.3707C2.7773 43.3538 2.6898 43.303 2.61077 43.2268L2.58537 43.2014C2.48658 43.0885 2.41602 42.9445 2.38779 42.7893C2.32288 42.4393 2.43295 42.0611 2.53739 41.7732C2.81964 40.9829 3.24866 40.3422 3.77929 39.916C4.24783 39.5434 4.81515 39.3317 5.35707 39.3261C5.32038 39.995 5.15667 40.6527 4.88854 41.2623ZM5.77198 35.4536C4.96474 35.3209 4.34661 35.0528 3.93171 34.6492L3.91477 34.6323C3.82445 34.5419 3.77082 34.4657 3.74824 34.4036C3.70591 34.2823 3.73413 34.1355 3.76518 34.0339C4.01638 33.2069 5.10305 32.8597 5.95827 33.0516C6.93203 33.2746 7.75338 34 8.48159 34.6407L9.07149 35.1629C8.0187 35.5242 6.85583 35.6286 5.77198 35.4536ZM12.3343 34.7C12.3625 34.8976 12.4021 35.0895 12.4387 35.2786C12.5262 35.7048 12.6166 36.1423 12.5573 36.5346V36.5374C12.498 36.9241 12.2892 37.2939 12.069 37.6834C11.9843 37.8302 11.8996 37.9826 11.8263 38.1293C11.7218 38.3269 11.6315 38.533 11.544 38.7334C11.3436 39.185 11.1545 39.6112 10.8525 39.9357C10.6182 40.1841 10.2626 40.345 9.94365 40.3365C9.8251 40.3337 9.66422 40.3083 9.53721 40.2011L9.48358 40.1474C9.11948 39.7466 9.461 38.9563 9.53439 38.8011C9.86744 38.0672 10.367 37.3842 10.8102 36.7802L12.3343 34.7Z" fill="#3B6971"/>
<path d="M9.05196 31.1042C8.20521 31.1042 7.35564 30.9433 6.79396 30.7542C5.19924 30.2264 3.84161 29.0099 3.15856 27.4998C2.71261 26.5148 2.5489 25.4394 2.39366 24.4007C2.20173 23.1391 2.02109 21.9508 1.37756 20.9403L1.12354 20.5423L1.57796 20.4238C4.24805 19.7295 7.30483 20.9742 8.69068 23.314C9.19591 24.1664 9.47816 25.1092 9.75195 26.0237C9.83662 26.3115 9.92412 26.5966 10.0173 26.8789C10.2685 27.6438 10.5112 28.1998 10.8104 28.6768C10.8951 28.8123 11.0193 28.945 11.1378 29.0748C11.3834 29.3401 11.6402 29.6139 11.6035 29.9723C11.5809 30.1925 11.4511 30.3873 11.214 30.5566C10.6523 30.9602 9.85356 31.1042 9.05196 31.1042ZM2.19327 20.9939C2.7239 22.0242 2.89889 23.1786 3.06824 24.2991C3.21784 25.2926 3.3759 26.32 3.78234 27.2176C4.38636 28.5554 5.59439 29.6336 7.00847 30.1022C8.01892 30.4381 9.92694 30.6356 10.816 29.9977C10.9092 29.9328 10.9233 29.8961 10.9233 29.8961C10.912 29.8369 10.7398 29.6534 10.6354 29.5405C10.4999 29.3937 10.3475 29.23 10.2261 29.0409C9.89872 28.5159 9.63058 27.9147 9.36244 27.0934C9.2693 26.8055 9.1818 26.5119 9.0943 26.2212C8.82052 25.3067 8.56085 24.443 8.10078 23.664C6.94073 21.7052 4.46539 20.6101 2.19327 20.9939Z" fill="#3B6971"/>
<path d="M10.7454 29.9214C8.6934 28.9025 7.29343 27.0452 5.94145 25.2501C4.76729 23.6921 3.55361 22.0804 1.93066 21.0643L2.29477 20.4829C4.02214 21.5668 5.27534 23.2292 6.48902 24.838C7.85511 26.6501 9.14218 28.3605 11.0502 29.3089L10.7454 29.9214Z" fill="#3B6971"/>
<path d="M0.711272 31.1718C1.1041 31.1718 1.42254 30.8534 1.42254 30.4605C1.42254 30.0677 1.1041 29.7493 0.711272 29.7493C0.318447 29.7493 0 30.0677 0 30.4605C0 30.8534 0.318447 31.1718 0.711272 31.1718Z" fill="#3B6971"/>
<path d="M11.8573 18.0952C12.2501 18.0952 12.5685 17.7767 12.5685 17.3839C12.5685 16.9911 12.2501 16.6726 11.8573 16.6726C11.4644 16.6726 11.146 16.9911 11.146 17.3839C11.146 17.7767 11.4644 18.0952 11.8573 18.0952Z" fill="#3B6971"/>
<path d="M28.0472 43.3764C28.44 43.3764 28.7585 43.058 28.7585 42.6651C28.7585 42.2723 28.44 41.9539 28.0472 41.9539C27.6544 41.9539 27.3359 42.2723 27.3359 42.6651C27.3359 43.058 27.6544 43.3764 28.0472 43.3764Z" fill="#3B6971"/>
<path d="M47.4917 19.2805L46.9893 18.8148C49.9557 15.6085 51.7508 11.4424 52.0444 7.08447L52.7274 7.12963C52.4226 11.6456 50.5626 15.9613 47.4917 19.2805Z" fill="#3B6971"/>
<path d="M50.7601 14.2452L50.7573 13.5621C51.7 13.5565 52.6399 13.0004 53.1 12.1763L53.6984 12.5093C53.1141 13.5565 51.9597 14.2367 50.7601 14.2452Z" fill="#3B6971"/>
<path d="M51.4235 11.7191C50.8053 11.403 50.3424 10.7567 50.1561 9.94378C49.9981 9.25509 50.0432 8.56357 50.0856 7.89746L50.7686 7.94262C50.7291 8.56075 50.6868 9.19864 50.8223 9.79137C50.9634 10.4067 51.2964 10.8865 51.7339 11.1123L51.4235 11.7191Z" fill="#3B6971"/>
<path d="M53.3993 13.0795C53.8061 13.0795 54.1359 12.7497 54.1359 12.3429C54.1359 11.936 53.8061 11.6062 53.3993 11.6062C52.9924 11.6062 52.6626 11.936 52.6626 12.3429C52.6626 12.7497 52.9924 13.0795 53.3993 13.0795Z" fill="#3B6971"/>
<path d="M50.3876 8.47896C50.7944 8.47896 51.1242 8.14914 51.1242 7.74229C51.1242 7.33544 50.7944 7.00562 50.3876 7.00562C49.9807 7.00562 49.6509 7.33544 49.6509 7.74229C49.6509 8.14914 49.9807 8.47896 50.3876 8.47896Z" fill="#3B6971"/>
<path d="M52.3832 7.46285C52.79 7.46285 53.1198 7.13303 53.1198 6.72618C53.1198 6.31932 52.79 5.9895 52.3832 5.9895C51.9763 5.9895 51.6465 6.31932 51.6465 6.72618C51.6465 7.13303 51.9763 7.46285 52.3832 7.46285Z" fill="#3B6971"/>
</g>
<defs>
<clipPath id="clip0">
<rect width="207" height="44.1299" fill="white"/>
</clipPath>
</defs>
</svg>
