<svg width="16" height="16" viewBox="0 0 16 16" fill="none" xmlns="http://www.w3.org/2000/svg">
<path d="M13.4401 4.56C11.5201 1.6 7.60007 0.72 4.56007 2.56C1.60007 4.4 0.640068 8.4 2.56007 11.36L2.72007 11.6L2.08007 14L4.48007 13.36L4.72007 13.52C5.76007 14.08 6.88007 14.4 8.00007 14.4C9.20007 14.4 10.4001 14.08 11.4401 13.44C14.4001 11.52 15.2801 7.6 13.4401 4.56ZM11.7601 10.72C11.4401 11.2 11.0401 11.52 10.4801 11.6C10.1601 11.6 9.76007 11.76 8.16007 11.12C6.80007 10.48 5.68007 9.44 4.88007 8.24C4.40007 7.68 4.16007 6.96 4.08007 6.24C4.08007 5.6 4.32007 5.04 4.72007 4.64C4.88007 4.48 5.04007 4.4 5.20007 4.4H5.60007C5.76007 4.4 5.92007 4.4 6.00007 4.72C6.16007 5.12 6.56007 6.08 6.56007 6.16C6.64007 6.24 6.64007 6.4 6.56007 6.48C6.64007 6.64 6.56007 6.8 6.48007 6.88C6.40007 6.96 6.32007 7.12 6.24007 7.2C6.08007 7.28 6.00007 7.44 6.08007 7.6C6.40007 8.08 6.80007 8.56 7.20007 8.96C7.68007 9.36 8.16007 9.68 8.72007 9.92C8.88007 10 9.04007 10 9.12007 9.84C9.20007 9.68 9.60007 9.28 9.76007 9.12C9.92007 8.96 10.0001 8.96 10.1601 9.04L11.4401 9.68C11.6001 9.76 11.7601 9.84 11.8401 9.92C11.9201 10.16 11.9201 10.48 11.7601 10.72Z" fill="#3B6971"/>
</svg>
