<svg width="179" height="15" viewBox="0 0 179 15" fill="none" xmlns="http://www.w3.org/2000/svg">
<path d="M8.01926 10.3828L9.6408 11.7601C8.6384 12.9323 7.1053 13.6942 5.39531 13.6942C2.41757 13.6942 0 11.3499 0 8.44878C0 5.57699 2.44706 3.23267 5.45428 3.23267C7.16427 3.23267 8.69736 4.02387 9.67028 5.19603L8.04874 6.54402C7.45909 5.72351 6.51565 5.19603 5.42479 5.19603C3.62636 5.19603 2.15223 6.48541 2.15223 8.44878C2.15223 10.3828 3.59687 11.7015 5.39531 11.7308C6.48617 11.7308 7.45909 11.2034 8.01926 10.3828Z" fill="#2B505C"/>
<path d="M21.139 11.555L16.5397 11.5257L15.6257 13.6062H13.4146L18.3381 3.40845H19.37L24.2346 13.6356H22.0235L21.139 11.555ZM17.3062 9.82603H20.4019L18.8688 6.45607L17.3062 9.82603Z" fill="#2B505C"/>
<path d="M36.3518 10.6759C36.3518 12.6392 34.7597 13.7821 32.3716 13.7821C30.6322 13.7821 29.7477 13.6063 28.0967 12.7858L28.8632 11.174C30.2194 11.8187 31.1629 11.9653 32.4306 11.9653C33.5509 11.9653 34.229 11.555 34.229 10.8224C34.229 10.1191 33.5509 9.82606 32.0473 9.47441C29.9246 8.97624 28.2441 8.39016 28.2441 6.36818C28.2441 4.58063 29.6887 3.29125 32.0473 3.32056C33.6099 3.32056 34.9661 3.73081 35.9685 4.17037L35.1135 5.8114C34.1996 5.43045 32.9318 5.1081 31.9884 5.1081C30.927 5.1081 30.3668 5.57697 30.3668 6.19235C30.3668 6.92495 31.1039 7.218 32.637 7.56964C34.8482 8.12642 36.3518 8.82972 36.3518 10.6759Z" fill="#2B505C"/>
<path d="M47.7913 11.6723L43.1921 11.643L42.2781 13.7236H40.0669L44.9905 3.52576H46.0224L50.887 13.7529H48.6758L47.7913 11.6723ZM43.9586 9.91403H47.0543L45.5212 6.54407L43.9586 9.91403Z" fill="#2B505C"/>
<path d="M65.4219 13.8114H63.3286L63.3581 3.61365H65.4514L65.4219 13.8114Z" fill="#2B505C"/>
<path d="M80.0453 3.64295L80.0158 13.8408H78.9839L72.881 7.39387L72.8516 13.8114H70.7583L70.7878 3.61365H71.8197L77.9226 10.0605L77.952 3.64295H80.0453Z" fill="#2B505C"/>
<path d="M92.87 3.70154H95.1402L90.3051 13.8993H89.3321L84.5854 3.67224H86.8556L89.8333 10.3536L92.87 3.70154Z" fill="#2B505C"/>
<path d="M101.774 13.9579H99.6807L99.7101 3.76013H101.803L101.774 13.9579Z" fill="#2B505C"/>
<path d="M115.247 5.57698H111.975L111.945 13.9872H109.852L109.881 5.57698H106.609V3.78943L115.247 3.81873V5.57698Z" fill="#2B505C"/>
<path d="M125.478 11.9652L120.879 11.9359L119.965 14.0165H117.753L122.677 3.81873H123.709L128.573 14.0458H126.362L125.478 11.9652ZM121.616 10.2363H124.711L123.178 6.86634L121.616 10.2363Z" fill="#2B505C"/>
<path d="M140.042 10.9103L141.664 12.2876C140.661 13.4598 139.128 14.2217 137.418 14.2217C134.441 14.2217 132.023 11.8773 132.023 8.97624C132.023 6.10445 134.47 3.76013 137.477 3.76013C139.187 3.76013 140.72 4.55134 141.693 5.7235L140.072 7.07148C139.482 6.25097 138.539 5.7235 137.448 5.7235C135.649 5.7235 134.175 7.01288 134.175 8.97624C134.175 10.9103 135.62 12.229 137.418 12.2583C138.48 12.2583 139.453 11.7308 140.042 10.9103Z" fill="#2B505C"/>
<path d="M148.533 14.1338H146.44L146.469 3.93604H148.563L148.533 14.1338Z" fill="#2B505C"/>
<path d="M164.424 9.09347C164.424 11.9653 161.977 14.3096 158.941 14.2803C155.933 14.2803 153.486 11.936 153.486 9.03486C153.486 6.16307 155.963 3.81875 158.97 3.84805C162.007 3.87735 164.454 6.22168 164.424 9.09347ZM162.302 9.09347C162.302 7.30593 160.827 5.81142 158.97 5.81142C157.142 5.81142 155.639 7.27662 155.639 9.06417C155.639 10.881 157.113 12.3462 158.941 12.3462C160.798 12.3462 162.302 10.9103 162.302 9.09347Z" fill="#2B505C"/>
<path d="M178.635 4.05323L178.605 14.251H177.573L171.47 7.80415L171.441 14.2217H169.348L169.377 4.02393H170.409L176.512 10.4708L176.541 4.05323H178.635Z" fill="#2B505C"/>
<path d="M161.835 0.0193779L156.97 0L156.963 1.69964L161.828 1.71902L161.835 0.0193779Z" fill="#2B505C"/>
</svg>
